<svg width="20" height="19" viewBox="0 0 20 19" fill="none" xmlns="http://www.w3.org/2000/svg">
<path fill-rule="evenodd" clip-rule="evenodd" d="M6.28223 12.0219L6.0228 10.2923L5.9882 10.275H16.7118C16.9995 10.2936 17.286 10.2242 17.5332 10.0758C17.7804 9.92752 17.9765 9.70743 18.0955 9.44482C18.1824 9.24609 18.2604 9.04736 18.3359 8.85503C18.3656 8.77954 18.3948 8.70503 18.4241 8.6319L19.877 4.48085C19.9479 4.35532 19.9893 4.21532 19.9982 4.07141C20.0071 3.92751 19.9831 3.78343 19.9281 3.65015C19.8731 3.51686 19.7886 3.39784 19.6808 3.30204C19.5731 3.20623 19.445 3.13616 19.3062 3.09713C19.0616 3.01225 18.804 2.97125 18.5452 2.97605H4.70831C4.70831 2.97605 4.56128 2.54681 4.48345 2.2669C4.40519 1.98543 4.36628 1.73696 4.32914 1.49984C4.29269 1.26713 4.25796 1.04535 4.18942 0.814037C4.13327 0.574888 3.99543 0.36287 3.79967 0.214469C3.60391 0.0660692 3.36247 -0.0094126 3.11705 0.00111864H0.695604C0.600289 -0.00445432 0.504908 0.0108468 0.41609 0.045879C0.327271 0.0809113 0.247156 0.134879 0.181309 0.204018C0.115462 0.273157 0.0654688 0.355768 0.0348082 0.446189C0.00414766 0.53661 -0.00644154 0.632648 0.00377154 0.727578V1.35021C0.00147348 1.47658 0.0243731 1.60217 0.0711496 1.71959C0.117926 1.83701 0.187622 1.94395 0.276187 2.03413C0.364752 2.1243 0.470419 2.1959 0.586976 2.24479C0.703533 2.29367 0.828642 2.31886 0.955035 2.31884H2.30415C2.44252 2.31884 2.52899 2.35341 2.52899 2.50907C3.06516 5.41482 3.61863 8.28597 4.17211 11.1571C4.26694 11.7449 4.4116 12.3235 4.60451 12.8867C4.69092 13.2337 4.90372 13.5359 5.20123 13.7343C5.49874 13.9326 5.85955 14.0128 6.21306 13.9591H16.7118C16.8362 13.979 16.9638 13.9636 17.08 13.9147C17.1961 13.8658 17.2963 13.7853 17.369 13.6823C17.4934 13.5222 17.5707 13.3305 17.5921 13.1288C17.6135 12.9271 17.5782 12.7235 17.4901 12.5408C17.3172 12.1257 16.9712 12.1257 16.608 12.1257H16.608H6.4898C6.42062 12.1257 6.28223 12.0219 6.28223 12.0219ZM5.62266 8.49379C5.62468 8.52499 5.6332 8.55543 5.64765 8.58315C5.6621 8.61088 5.68217 8.6353 5.70659 8.65483C5.731 8.67437 5.75923 8.68857 5.78946 8.69658C5.81968 8.70459 5.85123 8.70621 5.88212 8.70134H16.1733C16.2051 8.70622 16.2376 8.70468 16.2689 8.69685C16.3001 8.68901 16.3295 8.67506 16.3553 8.65573C16.381 8.6364 16.4027 8.61212 16.419 8.58431C16.4352 8.55651 16.4458 8.52573 16.45 8.49379C16.5685 8.18206 16.6892 7.87032 16.8105 7.55697C17.0258 7.00103 17.243 6.44 17.4532 5.8648L17.7645 5L5 5.01726L5.62266 8.49379Z" fill="#E29542"/>
<path d="M15.3273 14.4419C15.5642 14.4352 15.7999 14.4767 16.0207 14.564C16.2414 14.6513 16.4426 14.7825 16.6125 14.95C16.7823 15.1175 16.9173 15.3177 17.0094 15.539C17.1015 15.7603 17.1489 15.998 17.1488 16.2381C17.1446 16.4806 17.0932 16.7199 16.9977 16.9422C16.9022 17.1646 16.7644 17.3656 16.5922 17.534C16.42 17.7023 16.2168 17.8346 15.9941 17.9234C15.7714 18.0121 15.5337 18.0555 15.2945 18.0511C14.8272 18.0382 14.383 17.8421 14.0555 17.5039C13.7279 17.1658 13.5427 16.712 13.5386 16.2381C13.5386 16.0008 13.585 15.7659 13.675 15.5469C13.7651 15.3278 13.8972 15.1291 14.0635 14.9621C14.2298 14.7951 14.4271 14.6631 14.644 14.5738C14.861 14.4845 15.0932 14.4397 15.3273 14.4419Z" fill="#E29542"/>
<path d="M6.43278 14.4425C6.67938 14.4378 6.92438 14.4828 7.15314 14.5751C7.3819 14.6673 7.58971 14.8047 7.76411 14.9791C7.93851 15.1535 8.07593 15.3613 8.16814 15.59C8.26035 15.8188 8.30546 16.0638 8.30076 16.3104C8.25569 16.7815 8.03668 17.2189 7.68649 17.5372C7.3363 17.8554 6.88006 18.0318 6.40683 18.0318C5.93361 18.0318 5.47737 17.8554 5.12718 17.5372C4.77699 17.2189 4.55798 16.7815 4.51291 16.3104C4.51039 16.06 4.55872 15.8117 4.65498 15.5805C4.75124 15.3493 4.89343 15.14 5.07292 14.9654C5.25241 14.7907 5.46548 14.6543 5.69922 14.5644C5.93296 14.4746 6.18252 14.4331 6.43278 14.4425V14.4425Z" fill="#E29542"/>
</svg>
