<svg width="22" height="22" viewBox="0 0 22 22" fill="none" xmlns="http://www.w3.org/2000/svg">
    <path id="Vector"
          d="M3.68101 0C4.12197 0 4.50157 0.351914 4.58593 0.83832L4.64344 1.375H20.7747C21.5531 1.375 22.1743 2.24512 21.9557 3.12211L19.8851 11.3738C19.7356 11.9668 19.2525 12.375 18.7041 12.375H6.5453L6.89806 14.4375H18.7118C19.2218 14.4375 19.6321 14.8973 19.6321 15.4688C19.6321 16.0402 19.2218 16.5 18.7118 16.5H6.10051C5.69406 16.5 5.31446 16.1477 5.2301 15.6621L2.9195 2.0625H0.920253C0.412197 2.0625 0 1.60059 0 1.03125C0 0.461914 0.412197 0 0.920253 0H3.68101ZM18.2363 10.3125L19.9618 3.4375H5.02688L6.19637 10.3125H18.2363ZM4.90802 19.9375C4.90802 18.7988 5.73241 17.875 6.74852 17.875C7.76463 17.875 8.58903 18.7988 8.58903 19.9375C8.58903 21.0762 7.76463 22 6.74852 22C5.73241 22 4.90802 21.0762 4.90802 19.9375ZM19.6321 19.9375C19.6321 21.0762 18.8077 22 17.7916 22C16.7754 22 15.951 21.0762 15.951 19.9375C15.951 18.7988 16.7754 17.875 17.7916 17.875C18.8077 17.875 19.6321 18.7988 19.6321 19.9375Z"
          fill="currentColor"/>
</svg>
