<svg width="21" height="20" viewBox="0 0 21 20" fill="none" xmlns="http://www.w3.org/2000/svg">
    <path id="Vector"
          d="M3.84637 0C4.24724 0 4.59234 0.319922 4.66902 0.762109L4.72131 1.25H19.3861C20.0937 1.25 20.6584 2.04102 20.4597 2.83828L18.5774 10.3398C18.4414 10.8789 18.0022 11.25 17.5038 11.25H6.45027L6.77097 13.125H17.5107C17.9743 13.125 18.3473 13.543 18.3473 14.0625C18.3473 14.582 17.9743 15 17.5107 15H6.04592C5.67642 15 5.33133 14.6797 5.25464 14.2383L3.15409 1.875H1.33659C0.874724 1.875 0.5 1.45508 0.5 0.9375C0.5 0.419922 0.874724 0 1.33659 0H3.84637ZM17.0785 9.375L18.6471 3.125H5.06989L6.13306 9.375H17.0785ZM4.96183 18.125C4.96183 17.0898 5.71128 16.25 6.63502 16.25C7.55876 16.25 8.30821 17.0898 8.30821 18.125C8.30821 19.1602 7.55876 20 6.63502 20C5.71128 20 4.96183 19.1602 4.96183 18.125ZM18.3473 18.125C18.3473 19.1602 17.5979 20 16.6741 20C15.7504 20 15.001 19.1602 15.001 18.125C15.001 17.0898 15.7504 16.25 16.6741 16.25C17.5979 16.25 18.3473 17.0898 18.3473 18.125Z"
          fill="#AC70C2"/>
</svg>
