<svg width="124" height="146" viewBox="0 0 124 146" fill="none" xmlns="http://www.w3.org/2000/svg">
<g id="Vector">
<path d="M98.2252 27.7816C97.1016 28.6871 95.9781 29.5829 94.8736 30.4884C95.283 32.7135 96.2637 34.7557 97.7205 36.4317C98.7584 35.141 99.7296 33.9369 100.653 32.8002C99.5201 31.259 98.6537 29.5348 98.2252 27.7816Z" fill="white"/>
<path d="M112.014 19.0359C114.185 16.4158 114.813 15.5874 114.604 15.3852C114.432 15.2214 113.832 15.6452 111.433 17.5043C111.566 18.0438 111.757 18.5543 112.014 19.0359Z" fill="white"/>
<path d="M109.184 19.2456C108.194 20.0162 107.032 20.9217 105.642 21.9813C105.823 23.1468 106.242 24.2642 106.937 25.1311C108.194 23.6092 109.27 22.3184 110.174 21.2299C109.765 20.6134 109.441 19.9488 109.184 19.2456Z" fill="white"/>
<path d="M103.261 23.8189C102.404 24.4836 101.557 25.1386 100.719 25.8032C100.814 27.4215 101.471 29.0976 102.442 30.6099C103.404 29.4347 104.289 28.3462 105.118 27.3445C104.251 26.3716 103.632 25.1386 103.261 23.8189Z" fill="white"/>
<path d="M92.531 32.4249C91.2551 33.4845 90.0078 34.5441 88.77 35.5941L94.3877 40.5934C94.9304 39.9095 95.4637 39.2545 95.9778 38.6091C94.3496 36.8559 93.1785 34.7271 92.531 32.4249Z" fill="white"/>
<path d="M80.8861 24.9852C80.5434 24.8503 80.1911 24.7155 79.8483 24.5902C76.2015 23.2802 72.3833 22.6541 68.5937 22.6926C59.034 22.7793 49.6076 27.0755 43.2186 35.2439C43.0187 35.504 42.8092 35.7737 42.6188 36.0434C42.5902 36.082 42.5616 36.1301 42.5331 36.1687C42.5426 36.1301 42.5616 36.1012 42.5807 36.0627C44.9896 30.601 48.7983 25.987 53.502 22.6059C47.0749 24.0797 40.9049 26.4397 35.1538 29.5703C29.736 34.666 25.994 41.6304 24.9847 49.6062C24.9657 49.7314 24.9466 49.8663 24.9371 49.9915C24.8229 50.974 24.7562 51.9469 24.7276 52.9102C24.7086 53.6712 24.7086 54.4321 24.7467 55.1931C24.7848 55.3472 24.8229 55.4917 24.8609 55.6459C24.8324 55.6555 24.8038 55.6748 24.7752 55.6844C24.7657 55.5206 24.7562 55.3569 24.7467 55.1931C24.5848 54.5477 24.442 53.8927 24.3087 53.2281C24.1754 52.5345 24.0611 51.8217 23.9754 51.1089C23.766 49.4135 23.6803 47.6797 23.7374 45.9169C23.8517 42.3528 24.5182 38.9332 25.6512 35.7545C16.3201 42.9115 8.63611 52.39 3.54204 63.6313C3.54204 68.2453 3.98004 72.8112 4.81794 77.2711C5.25593 79.6311 5.81771 81.9526 6.48422 84.2452C6.73178 85.1217 7.00791 85.9887 7.29356 86.8556C8.90271 91.7104 11.007 96.3823 13.5683 100.784C11.3498 98.0487 9.32166 95.1493 7.51256 92.0958C5.9891 89.5431 4.61798 86.8845 3.39922 84.1392C3.22783 83.7346 3.04692 83.3301 2.87553 82.9255C1.96145 80.7485 1.14259 78.5041 0.437994 76.2115C0.152346 78.8605 0 81.5288 0 84.2452C0 86.6341 0.114259 89.0518 0.342778 91.4793C0.676035 94.9855 1.24733 98.4148 2.04715 101.738C3.085 106.102 4.50372 110.311 6.26522 114.309C7.81725 117.314 9.73109 120.156 12.0068 122.776C13.2636 124.221 14.6252 125.598 16.1011 126.889C20.7 130.174 25.6798 132.929 30.9453 135.077C32.0974 135.549 33.259 135.992 34.4397 136.396C39.5242 138.169 44.8468 139.373 50.3313 139.96C48.465 139.305 46.6369 138.487 44.8659 137.514C43.1424 136.57 41.4666 135.472 39.867 134.219C39.1814 133.689 38.5149 133.131 37.8865 132.562C36.1536 131.021 34.592 129.345 33.2209 127.553C37.677 129.499 42.3712 130.617 47.0844 130.944C47.551 130.983 48.0175 131.002 48.4841 131.021C49.3791 130.992 50.2837 131.002 51.1882 131.031C52.5498 131.079 53.9209 131.195 55.292 131.368C57.3773 131.638 59.4625 132.052 61.5382 132.63C62.0524 132.774 62.557 132.919 63.0617 133.083C66.2705 134.084 69.2888 135.423 72.1072 137.042C72.8975 137.494 73.6783 137.976 74.44 138.477C74.9827 138.833 75.5255 139.209 76.0492 139.585C78.6581 141.473 81.0385 143.63 83.1713 146C81.7907 143.399 80.2006 140.914 78.42 138.573C78.182 138.255 77.9344 137.947 77.6869 137.639C77.5631 137.475 77.4298 137.311 77.2965 137.157C74.9446 134.258 72.2881 131.599 69.365 129.23C68.727 128.709 68.0796 128.209 67.4226 127.727C67.3083 127.64 67.194 127.553 67.0798 127.476C62.8141 124.384 58.0343 121.88 52.8355 120.107C52.2165 119.896 51.5786 119.693 50.9502 119.501C49.998 119.289 49.0458 119.038 48.1127 118.73C44.6469 117.613 41.3143 115.859 38.2959 113.432C32.821 109.049 29.2028 103.173 27.5556 96.8254C32.9734 102.971 39.9527 106.92 47.37 108.577C49.8361 109.126 52.3498 109.425 54.8636 109.463C51.6072 108.192 48.4841 106.429 45.58 104.165C44.1803 103.077 42.8758 101.902 41.6761 100.669C41.2 100.341 40.7335 99.9945 40.2764 99.6381C40.1622 99.5514 40.0479 99.4551 39.9241 99.3684C38.6768 98.3762 37.5342 97.2974 36.4868 96.1607C36.4868 96.1607 36.4868 96.1511 36.4773 96.1511C33.6018 93.0301 31.4689 89.4179 30.0978 85.5648C29.2314 83.1181 28.6696 80.5848 28.422 78.0128C28.1554 75.2386 28.2602 72.4259 28.7362 69.6517C28.9552 68.3898 29.2504 67.1376 29.6313 65.895C30.7167 62.3213 32.4592 58.8824 34.8967 55.7807C35.1348 55.4725 35.3823 55.1642 35.6394 54.8752C35.5442 55.3376 35.468 55.8 35.4014 56.2624C34.8777 59.7301 34.9348 63.2653 35.5728 66.6945C36.0488 69.2953 36.8487 71.848 37.9722 74.2657C38.1341 74.6125 38.2959 74.9593 38.4769 75.2964C39.8194 77.9454 41.5619 80.421 43.6757 82.6365C42.3521 80.5077 41.3143 78.2344 40.5621 75.884C40.3621 75.2772 40.1907 74.6511 40.0289 74.0346C39.6766 72.6378 39.4195 71.2122 39.2671 69.7769C39.2671 69.7769 39.2671 69.7769 39.2671 69.7673C39.0386 67.6963 39.0291 65.5964 39.2291 63.5061C39.4385 61.2906 39.8861 59.0943 40.5907 56.9559C41.2572 54.8945 42.1522 52.8909 43.2853 50.974C43.9613 49.8085 44.7326 48.6911 45.58 47.6026C45.7895 47.3329 46.0084 47.0728 46.2274 46.8127C46.894 46.0132 47.5986 45.2522 48.3317 44.5394C52.6069 40.3685 57.8914 37.7003 63.4425 36.6214H63.4616C64.9946 36.3228 66.5466 36.1494 68.1081 36.0916C68.1176 36.0434 68.1367 36.0049 68.1462 35.9568C68.6509 34.4637 69.2983 33.433 69.8125 32.7395C70.4695 31.8533 71.0979 31.3042 72.3929 30.4758C73.0594 30.0423 73.9068 29.551 75.0399 28.8864C75.7159 28.4915 76.4776 28.0484 77.3727 27.5186C77.8202 27.2488 78.3058 26.9695 78.8295 26.6613C80.0387 25.9484 80.591 25.6113 81.1718 25.2645C81.248 25.1586 81.5907 25.12 80.8861 24.9852ZM36.4011 51.7928C36.4011 51.7639 36.4011 51.7446 36.4107 51.7157H36.4202C36.4107 51.735 36.4011 51.7639 36.4011 51.7928Z" fill="white"/>
<path d="M86.9041 34.3888C89.0846 35.9204 91.265 37.452 93.3407 39.1473C94.3881 39.995 95.3688 40.8619 96.4257 41.6615C96.9494 42.066 97.5017 42.4995 97.9968 42.9908C98.511 43.5013 98.9299 43.9444 99.4155 44.4838C99.5393 44.6283 99.6631 44.7728 99.7869 44.9751C99.844 45.081 99.9106 45.1966 99.9583 45.3508C100.015 45.553 100.015 45.6108 100.034 45.6879L100.225 46.6704L100.625 48.6258C100.901 49.9166 101.225 51.1689 101.729 52.2959C102.224 53.4229 102.919 54.444 103.729 55.4265C104.557 56.3609 105.414 57.536 106.252 58.5475C107.928 60.6185 109.632 62.6124 111.384 64.6353C112.26 65.6467 113.146 66.7159 113.955 67.7755C114.831 68.9122 115.564 70.0392 116.297 71.224C117.011 72.3992 117.659 73.6322 118.24 74.9037C118.821 76.1945 119.316 77.4563 119.706 78.9397C119.897 79.7778 119.944 80.6447 119.716 81.5984C119.43 82.6387 118.935 83.2552 118.525 83.8428C117.659 84.9987 116.745 86.0005 115.859 87.0023C115.402 87.5032 114.955 88.0041 114.383 88.5339C114.069 88.7939 113.812 89.1022 113.06 89.3912C112.612 89.5453 112.146 89.6127 111.746 89.6416C110.918 89.6898 110.48 89.6705 110.061 89.8054C109.851 89.8632 109.623 89.9595 109.423 90.0654C109.318 90.1232 109.27 90.1521 109.213 90.2003C109.175 90.2292 108.928 90.4604 108.651 90.6145C108.137 90.9035 107.785 90.9998 107.318 91.125C106.88 91.2214 106.433 91.2599 106.024 91.2503C105.195 91.2406 104.491 91.1058 103.834 90.9902C103.51 90.9324 103.129 90.865 102.748 90.7686C102.558 90.7205 102.339 90.653 102.167 90.5952C101.977 90.5278 101.948 90.5182 101.882 90.5085C101.805 90.4989 101.729 90.4893 101.548 90.47C101.348 90.4604 101.129 90.4315 100.901 90.393C100.453 90.3063 99.9963 90.1521 99.5774 89.921C99.4726 89.8632 99.3774 89.8054 99.2632 89.7283C99.1108 89.6223 98.9299 89.4682 98.8061 89.3237C98.549 89.0251 98.3872 88.688 98.311 88.4279C98.1396 87.8788 98.1206 87.455 98.1015 87.0697C98.073 86.3087 98.1111 85.673 98.0539 85.1432C97.9968 84.6134 97.9016 84.3726 97.6064 83.9872C97.3112 83.6116 96.8256 83.1781 96.34 82.7543C95.4069 81.897 94.4452 81.2708 93.3122 80.7025C92.1981 80.1342 90.9889 79.6429 89.7701 79.1709C87.304 78.2558 84.7903 77.4467 82.3052 76.5509L78.5441 75.2505C77.9157 75.0289 77.2873 74.817 76.6398 74.5762C75.9828 74.3354 75.3163 73.9886 74.7545 73.6611C72.3741 72.3607 70.1461 70.4919 68.775 68.0934C67.3658 65.7141 66.7468 62.9592 66.804 60.2813C67.0515 62.9496 67.937 65.5408 69.4415 67.6503C70.9459 69.7887 73.0502 71.33 75.402 72.3992C76.0209 72.6882 76.5351 72.9386 77.1444 73.1216C77.7538 73.3143 78.3918 73.4877 79.0297 73.6707L82.8669 74.7399C85.4283 75.4913 87.98 76.233 90.5318 77.0518C91.8077 77.4852 93.0836 77.938 94.3595 78.5159C95.6259 79.0842 96.9304 79.9127 97.9778 80.8278C98.4919 81.2709 99.0347 81.6947 99.5964 82.3497C100.168 82.9758 100.596 84.0354 100.663 84.8446C100.758 85.6537 100.739 86.3569 100.777 86.9348C100.796 87.2142 100.834 87.4743 100.872 87.5513C100.882 87.6091 100.901 87.5706 100.853 87.5224C100.834 87.5032 100.787 87.4454 100.768 87.4454L100.882 87.5032C101.044 87.5899 101.225 87.638 101.425 87.6765C101.529 87.6958 101.634 87.7054 101.767 87.7151C101.91 87.7247 102.167 87.7343 102.415 87.7825C102.681 87.8307 102.958 87.927 103.091 87.9752C103.234 88.0233 103.338 88.0522 103.462 88.0908C103.719 88.1582 103.995 88.2063 104.329 88.2545C104.976 88.3605 105.586 88.4568 106.081 88.4568C106.328 88.4568 106.557 88.4375 106.757 88.3894C106.938 88.3508 107.214 88.2449 107.28 88.1967C107.29 88.1871 107.29 88.1871 107.509 88.0041C107.709 87.8403 107.937 87.6958 108.128 87.5899C108.509 87.3876 108.89 87.2142 109.318 87.089C110.175 86.8193 111.079 86.8481 111.575 86.8096C111.832 86.7904 112.032 86.7518 112.213 86.6844C112.089 86.7422 112.346 86.5977 112.517 86.4147C112.917 86.039 113.365 85.5381 113.803 85.0565C114.698 84.0739 115.583 83.1011 116.326 82.1282C116.688 81.6465 117.002 81.1553 117.059 80.8855C117.145 80.5388 117.154 80.0282 117.04 79.5659C116.44 77.254 115.288 74.8459 114.031 72.6207C113.393 71.513 112.689 70.3763 111.955 69.3842C111.165 68.3053 110.375 67.3035 109.527 66.2728C107.823 64.2307 106.147 62.0923 104.557 59.9442C103.738 58.8653 103.072 57.8346 102.186 56.7365C101.339 55.6288 100.558 54.3765 100.063 53.0183C99.5488 51.6601 99.2917 50.2827 99.0823 48.9437L98.7966 46.9401L98.6633 45.948C98.6538 45.8613 98.6347 45.7553 98.6443 45.7939C98.6443 45.7842 98.6347 45.7457 98.6157 45.7072C98.5681 45.6205 98.4919 45.4952 98.4062 45.3796C98.0349 44.898 97.5778 44.3393 97.1779 43.877C96.759 43.405 96.2924 42.9715 95.7973 42.5188C94.788 41.6326 93.8358 40.6693 92.8932 39.7446C90.9222 37.9047 88.9036 36.1612 86.9041 34.3888Z" fill="white"/>
<path d="M110.194 76.6645C110.213 76.9342 110.27 77.8397 110.87 78.119C111.318 78.3309 111.994 78.1479 112.203 77.7433C112.336 77.4833 112.26 77.175 112.174 76.8668C112.089 76.5585 112.013 76.52 111.784 76.0384C111.46 75.3352 111.651 75.3352 111.432 75.1233C111.27 74.9691 111.127 75.1233 110.632 74.7091C109.889 74.0926 109.851 73.7458 109.48 73.4375C109.394 73.3605 110.032 74.6898 110.261 75.4893C110.394 75.8939 110.156 76.0191 110.194 76.6645Z" fill="white"/>
<path d="M94.5509 54.9739C94.9032 55.6289 94.5889 56.9004 93.6558 57.3339C92.9607 57.6614 92.1228 57.4398 91.6563 56.9582C91.1612 56.4669 91.1612 55.7927 91.1612 54.7331C91.1612 53.4712 91.4754 52.1708 91.4754 52.1419C91.4754 52.1419 92.4942 53.4808 93.951 54.4634C94.2938 54.7042 94.4366 54.762 94.5509 54.9739Z" fill="white"/>
<path d="M89.8459 49.5499C90.6552 50.176 91.3313 50.8118 92.0263 51.409C92.7119 52.0062 93.3784 52.5842 94.0735 53.1429C94.759 53.7016 95.4541 54.2506 96.1778 54.7997C96.8919 55.368 97.6441 55.9075 98.4153 56.5817C97.3965 56.6781 96.4063 56.4758 95.4636 56.1386C94.5305 55.7919 93.645 55.2813 92.8738 54.6456C92.093 54.0098 91.417 53.2488 90.8933 52.3915C90.3696 51.515 89.9697 50.5806 89.8459 49.5499Z" fill="white"/>
<path d="M79.181 26.3251L79.3428 26.1517C80.9901 24.5142 82.7611 23.0982 84.6273 21.8074C85.5605 21.1524 86.4936 20.5359 87.5124 19.9579C88.0456 19.669 88.5026 19.3993 89.2739 19.1295C89.3691 19.1006 89.5024 19.0621 89.6452 19.0428C89.8166 19.0236 89.988 18.9851 90.3784 19.0525C90.7402 19.1006 91.3496 19.4859 91.5496 20.0446C91.7495 20.5744 91.6353 21.0079 91.5972 21.1717C91.4734 21.5859 91.3591 21.74 91.2734 21.9037C91.1782 22.0675 91.102 22.1927 91.0163 22.3179C90.3498 23.2523 89.8547 24.1096 89.3405 25.0343C88.8264 25.9687 88.4455 27.0283 87.9409 28.0108C86.9125 29.9855 86.0461 32.018 84.8178 34.0505C84.8844 31.7387 85.2177 29.4172 85.8556 27.1824C86.008 26.6237 86.1603 26.0554 86.3317 25.5063C86.5126 24.9477 86.6269 24.389 86.903 23.8399C87.1601 23.2908 87.4172 22.7321 87.7028 22.2024C87.998 21.6822 88.3408 21.1717 88.6359 20.7189L88.8264 20.4203C88.8835 20.3433 88.9025 20.2566 88.8645 20.3914C88.8645 20.4203 88.7597 20.7093 88.9216 21.1042C89.0644 21.5281 89.55 21.817 89.7785 21.8459C90.0261 21.8941 90.0642 21.8652 90.0928 21.8652C90.1023 21.8652 90.0928 21.8652 90.0642 21.8748C89.769 21.9423 89.2168 22.1927 88.7502 22.4046L85.7509 23.8014C83.7037 24.6972 81.628 25.6027 79.419 26.2577L79.181 26.3251Z" fill="white"/>
<path d="M66.5559 72.4351C65.8609 75.0166 65.3181 77.5115 65.1563 80.0063C64.9658 82.4916 65.1182 84.9383 65.5562 87.3753C65.9846 89.8027 66.6892 92.2783 67.3082 94.7924C67.9271 97.2777 68.6888 99.734 69.4124 102.316C67.6414 100.312 66.2798 97.9905 65.1848 95.5438C64.1565 93.1067 63.2234 90.6022 62.7473 87.8762C62.2617 85.1694 62.2903 82.3085 62.9473 79.6403C63.5947 76.9624 64.804 74.4579 66.5559 72.4351Z" fill="white"/>
<path d="M118.019 29.9679L118.524 32.3665C118.829 33.8306 120.095 34.8806 121.571 34.8998L123.999 34.9384L121.628 35.4489C120.181 35.7572 119.143 37.0383 119.124 38.5313L119.086 40.9877L118.581 38.5891C118.276 37.125 117.01 36.075 115.534 36.0558L113.106 36.0172L115.477 35.5067C116.924 35.1985 117.962 33.9173 117.981 32.4243L118.019 29.9679Z" fill="white"/>
<path d="M94.9701 0.327105L95.4748 2.72563C95.7795 4.18979 97.0459 5.23975 98.5217 5.25902L100.95 5.29755L98.5788 5.80808C97.1315 6.11632 96.0937 7.39746 96.0747 8.89052L96.0366 11.3468L95.5319 8.94831C95.2272 7.48415 93.9609 6.4342 92.485 6.41493L90.057 6.3764L92.4279 5.86587C93.8752 5.55763 94.913 4.27649 94.9321 2.78343L94.9701 0.327105Z" fill="white"/>
<path d="M63.3456 6.10559L63.7265 7.92615C63.955 9.03391 64.9167 9.83342 66.0307 9.85268L67.8684 9.88158L66.0688 10.2669C64.9738 10.4981 64.1835 11.471 64.1645 12.598L64.1359 14.4571L63.755 12.6365C63.5265 11.5288 62.5648 10.7293 61.4508 10.71L59.6131 10.6811L61.4127 10.2958C62.5077 10.0646 63.298 9.0917 63.317 7.96469L63.3456 6.10559Z" fill="white"/>
<path d="M41.3523 0L41.8475 2.36C42.1522 3.79526 43.39 4.83558 44.8468 4.85485L47.2367 4.89338L44.8944 5.39428C43.4757 5.70252 42.4473 6.95477 42.4283 8.42856L42.3902 10.8464L41.8951 8.47672C41.5904 7.04146 40.3526 6.00113 38.8958 5.98187L36.5058 5.94334L38.8386 5.44244C40.2574 5.1342 41.2857 3.88195 41.3047 2.40816L41.3523 0Z" fill="white"/>
<path d="M18.9181 16.1165L19.5275 19.0352C19.8988 20.8076 21.4318 22.0887 23.2314 22.1176L26.1831 22.1658L23.298 22.7823C21.5461 23.158 20.2797 24.7088 20.2511 26.5294L20.2035 29.5155L19.5941 26.5968C19.2228 24.8244 17.6898 23.5433 15.8902 23.5144L12.9385 23.4662L15.8236 22.8497C17.5755 22.4741 18.8419 20.9232 18.8705 19.1026L18.9181 16.1165Z" fill="white"/>
</g>
</svg>
