<svg width="303" height="90" viewBox="0 0 303 90" fill="none" xmlns="http://www.w3.org/2000/svg">
<g clip-path="url(#clip0_301_147)">
<path d="M60.9943 17.1237C60.2966 17.6818 59.5989 18.234 58.9131 18.7921C59.1673 20.1636 59.7763 21.4224 60.681 22.4555C61.3254 21.6599 61.9285 20.9177 62.502 20.2171C61.7984 19.2671 61.2604 18.2043 60.9943 17.1237Z" fill="#AF88BD" stroke="#AF88BD" stroke-miterlimit="10"/>
<path d="M69.556 11.7324C70.9041 10.1175 71.2943 9.60683 71.1642 9.48214C71.0578 9.38121 70.6853 9.64245 69.1953 10.7884C69.2781 11.1209 69.3963 11.4356 69.556 11.7324Z" fill="#AF88BD" stroke="#AF88BD" stroke-miterlimit="10"/>
<path d="M67.8001 11.863C67.1852 12.338 66.4638 12.8962 65.6006 13.5493C65.7129 14.2677 65.9731 14.9565 66.4047 15.4908C67.1852 14.5527 67.8533 13.7571 68.415 13.0862C68.1608 12.7062 67.9597 12.2965 67.8001 11.863Z" fill="#AF88BD" stroke="#AF88BD" stroke-miterlimit="10"/>
<path d="M64.1221 14.6833C63.59 15.093 63.0638 15.4968 62.5435 15.9065C62.6026 16.904 63.0106 17.9371 63.6136 18.8693C64.2108 18.1449 64.7607 17.474 65.2751 16.8565C64.737 16.2568 64.3527 15.4968 64.1221 14.6833Z" fill="#AF88BD" stroke="#AF88BD" stroke-miterlimit="10"/>
<path d="M57.459 19.9855C56.6667 20.6386 55.8922 21.2917 55.1235 21.9389L58.612 25.0204C58.949 24.5989 59.2801 24.1951 59.5994 23.7973C58.5883 22.7167 57.8611 21.4045 57.459 19.9855Z" fill="#AF88BD" stroke="#AF88BD" stroke-miterlimit="10"/>
<path d="M50.2277 15.4017C50.0148 15.3186 49.7961 15.2355 49.5832 15.1583C47.3187 14.3508 44.9477 13.9649 42.5945 13.9886C36.6582 14.0421 30.8047 16.6902 26.8374 21.7251C26.7132 21.8854 26.5831 22.0517 26.4649 22.2179C26.4471 22.2417 26.4294 22.2714 26.4117 22.2951C26.4176 22.2714 26.4294 22.2536 26.4412 22.2298C27.9371 18.8633 30.3022 16.0192 33.223 13.9352C29.232 14.8436 25.4006 16.2983 21.8294 18.228C18.4651 21.3689 16.1414 25.6617 15.5147 30.5779C15.5029 30.6551 15.4911 30.7382 15.4851 30.8154C15.4142 31.421 15.3728 32.0207 15.3551 32.6144C15.3432 33.0835 15.3432 33.5525 15.3669 34.0216C15.3905 34.1166 15.4142 34.2057 15.4378 34.3007C15.4201 34.3066 15.4024 34.3185 15.3846 34.3244C15.3787 34.2235 15.3728 34.1225 15.3669 34.0216C15.2664 33.6238 15.1777 33.22 15.0949 32.8104C15.0121 32.3829 14.9412 31.9435 14.888 31.5041C14.7579 30.4591 14.7047 29.3904 14.7402 28.3038C14.8111 26.107 15.225 23.9992 15.9286 22.0398C10.1342 26.4513 5.36274 32.2938 2.19949 39.2228C2.19949 42.0669 2.47147 44.8812 2.99178 47.6303C3.26376 49.0849 3.61261 50.5159 4.02649 51.929C4.18022 52.4693 4.35169 53.0037 4.52906 53.538C5.5283 56.5305 6.83498 59.4102 8.42548 62.1236C7.04784 60.4374 5.78845 58.6502 4.66505 56.768C3.71904 55.1946 2.86762 53.5558 2.1108 51.8637C2.00438 51.6143 1.89204 51.3649 1.78561 51.1155C1.218 49.7737 0.709514 48.3903 0.27198 46.9771C0.0946019 48.6099 0 50.2546 0 51.929C0 53.4015 0.0709514 54.8918 0.212854 56.388C0.419796 58.5492 0.774553 60.663 1.27121 62.7114C1.91569 65.4011 2.79667 67.9957 3.8905 70.4598C4.85426 72.3123 6.04269 74.0638 7.45581 75.6788C8.23627 76.5694 9.08178 77.4185 9.99823 78.2141C12.854 80.2388 15.9463 81.9369 19.216 83.2609C19.9314 83.5519 20.6528 83.825 21.3859 84.0744C24.5433 85.1669 27.8484 85.9091 31.2541 86.2712C30.0952 85.8675 28.96 85.3628 27.8602 84.7631C26.7901 84.1813 25.7494 83.5044 24.7561 82.7325C24.3304 82.406 23.9165 82.0616 23.5263 81.7113C22.4502 80.7613 21.4805 79.7282 20.6291 78.6238C23.3962 79.8232 26.3111 80.5119 29.2379 80.7138C29.5276 80.7375 29.8173 80.7494 30.107 80.7613C30.6628 80.7435 31.2245 80.7494 31.7862 80.7672C32.6317 80.7969 33.4831 80.8682 34.3346 80.975C35.6294 81.1413 36.9243 81.3966 38.2132 81.7528C38.5325 81.8419 38.8459 81.931 39.1593 82.0319C41.1518 82.6494 43.0261 83.4747 44.7762 84.4722C45.267 84.7513 45.7518 85.0481 46.2248 85.3569C46.5619 85.5766 46.8989 85.8081 47.2241 86.0397C48.8441 87.2034 50.3223 88.5334 51.6467 89.994C50.7894 88.3909 49.802 86.859 48.6963 85.4162C48.5485 85.2203 48.3948 85.0303 48.241 84.8403C48.1642 84.7394 48.0814 84.6384 47.9986 84.5434C46.5382 82.7563 44.8886 81.1175 43.0734 79.6569C42.6773 79.3363 42.2752 79.0275 41.8672 78.7307C41.7963 78.6772 41.7253 78.6238 41.6544 78.5763C39.0055 76.6704 36.0374 75.1266 32.8091 74.0341C32.4248 73.9035 32.0286 73.7788 31.6384 73.6601C31.0471 73.5295 30.4559 73.3751 29.8764 73.1851C27.7243 72.4963 25.6548 71.4157 23.7805 69.9195C20.3808 67.2179 18.134 63.5961 17.1111 59.6833C20.4754 63.4714 24.8093 65.9058 29.4153 66.927C30.9466 67.2654 32.5076 67.4495 34.0685 67.4732C32.0464 66.6895 30.107 65.6029 28.3037 64.2076C27.4345 63.5367 26.6245 62.8123 25.8795 62.0523C25.5839 61.8505 25.2942 61.6367 25.0104 61.417C24.9394 61.3636 24.8685 61.3042 24.7916 61.2508C24.017 60.6392 23.3075 59.9742 22.6571 59.2736C22.6571 59.2736 22.6571 59.2677 22.6512 59.2677C20.8656 57.3439 19.5412 55.1174 18.6898 52.7424C18.1517 51.2343 17.8029 49.6727 17.6492 48.0874C17.4836 46.3775 17.5486 44.6437 17.8443 42.9337C17.9803 42.1559 18.1636 41.3841 18.4001 40.6181C19.0741 38.4153 20.1561 36.2957 21.6697 34.3838C21.8176 34.1938 21.9713 34.0038 22.1309 33.8257C22.0718 34.1107 22.0245 34.3957 21.9831 34.6807C21.6579 36.8181 21.6934 38.9972 22.0895 41.1109C22.3852 42.714 22.8818 44.2875 23.5795 45.7778C23.68 45.9915 23.7805 46.2053 23.8929 46.4131C24.7266 48.0459 25.8086 49.5718 27.1212 50.9374C26.2993 49.6252 25.6548 48.224 25.1877 46.7753C25.0636 46.4012 24.9572 46.0153 24.8566 45.6353C24.6379 44.7743 24.4782 43.8956 24.3836 43.0109C24.3836 43.0109 24.3836 43.0109 24.3836 43.005C24.2417 41.7284 24.2358 40.4341 24.36 39.1456C24.4901 37.78 24.768 36.4263 25.2055 35.1082C25.6194 33.8375 26.1752 32.6026 26.8788 31.421C27.2985 30.7026 27.7775 30.0138 28.3037 29.3429C28.4338 29.1766 28.5698 29.0163 28.7058 28.856C29.1196 28.3632 29.5572 27.8941 30.0124 27.4548C32.6672 24.8839 35.9487 23.2392 39.3958 22.5742H39.4076C40.3595 22.3901 41.3233 22.2832 42.2929 22.2476C42.2989 22.2179 42.3107 22.1942 42.3166 22.1645C42.63 21.2442 43.032 20.6089 43.3513 20.1814C43.7593 19.6351 44.1495 19.2967 44.9536 18.7861C45.3675 18.5189 45.8937 18.2161 46.5973 17.8064C47.0171 17.563 47.4901 17.2898 48.0459 16.9633C48.3238 16.797 48.6254 16.6249 48.9506 16.4349C49.7015 15.9955 50.0444 15.7877 50.4051 15.5739C50.4524 15.5086 50.6652 15.4849 50.2277 15.4017ZM22.6039 31.9257C22.6039 31.9079 22.6039 31.896 22.6098 31.8782H22.6158C22.6098 31.8901 22.6039 31.9079 22.6039 31.9257Z" fill="#AF88BD"/>
<path d="M53.9642 21.1968C55.3182 22.1408 56.6722 23.0849 57.9612 24.1299C58.6116 24.6524 59.2206 25.1867 59.8769 25.6796C60.2021 25.9289 60.545 26.1961 60.8524 26.4989C61.1717 26.8136 61.4319 27.0867 61.7334 27.4192C61.8103 27.5083 61.8872 27.5974 61.964 27.722C61.9995 27.7874 62.0409 27.8586 62.0704 27.9536C62.1059 28.0783 62.1059 28.1139 62.1177 28.1614L62.236 28.767L62.4843 29.9723C62.6558 30.768 62.8568 31.5398 63.1702 32.2345C63.4776 32.9292 63.9093 33.5586 64.4118 34.1642C64.9262 34.7401 65.4584 35.4645 65.9787 36.0879C67.0193 37.3645 68.0777 38.5935 69.1656 39.8404C69.7095 40.4638 70.2594 41.1229 70.762 41.776C71.306 42.4766 71.7612 43.1713 72.2165 43.9016C72.6599 44.626 73.062 45.386 73.4227 46.1697C73.7833 46.9653 74.0908 47.7432 74.3332 48.6575C74.4515 49.1741 74.481 49.7085 74.3391 50.2963C74.1617 50.9375 73.8543 51.3175 73.6 51.6797C73.062 52.3922 72.4944 53.0097 71.9445 53.6272C71.6607 53.9359 71.3828 54.2447 71.0281 54.5712C70.8329 54.7315 70.6733 54.9215 70.2062 55.0997C69.9283 55.1947 69.6386 55.2362 69.3903 55.254C68.8759 55.2837 68.6039 55.2719 68.3437 55.355C68.2136 55.3906 68.0717 55.45 67.9476 55.5153C67.8825 55.5509 67.853 55.5687 67.8175 55.5984C67.7939 55.6162 67.6401 55.7587 67.4687 55.8537C67.1494 56.0318 66.9306 56.0912 66.6409 56.1684C66.3689 56.2278 66.091 56.2515 65.8368 56.2456C65.3224 56.2397 64.8848 56.1565 64.4769 56.0853C64.2759 56.0497 64.0393 56.0081 63.8028 55.9487C63.6846 55.919 63.5486 55.8775 63.4422 55.8419C63.3239 55.8003 63.3062 55.7943 63.2648 55.7884C63.2175 55.7825 63.1702 55.7765 63.0578 55.7647C62.9337 55.7587 62.7977 55.7409 62.6558 55.7172C62.3779 55.6637 62.0941 55.5687 61.8339 55.4262C61.7689 55.3906 61.7098 55.355 61.6388 55.3075C61.5442 55.2422 61.4319 55.1472 61.355 55.0581C61.1954 54.874 61.0949 54.6662 61.0476 54.5059C60.9411 54.1675 60.9293 53.9062 60.9175 53.6687C60.8997 53.1997 60.9234 52.8078 60.8879 52.4812C60.8524 52.1547 60.7933 52.0063 60.61 51.7688C60.4267 51.5372 60.1252 51.27 59.8236 51.0088C59.2442 50.4803 58.647 50.0944 57.9434 49.7441C57.2517 49.3938 56.5008 49.091 55.7439 48.8C54.2126 48.236 52.6516 47.7372 51.1085 47.185L48.773 46.3835C48.3827 46.2469 47.9925 46.1163 47.5904 45.9679C47.1825 45.8194 46.7686 45.6057 46.4197 45.4038C44.9416 44.6022 43.558 43.4504 42.7066 41.9719C41.8316 40.5054 41.4472 38.8073 41.4827 37.1567C41.6364 38.8013 42.1863 40.3985 43.1205 41.6988C44.0547 43.0169 45.3614 43.9669 46.8218 44.626C47.2061 44.8041 47.5254 44.9585 47.9038 45.0713C48.2822 45.1901 48.6784 45.2969 49.0745 45.4097L51.4573 46.0688C53.0478 46.5319 54.6324 46.9891 56.217 47.4938C57.0092 47.761 57.8015 48.04 58.5938 48.3963C59.3802 48.7466 60.1902 49.2572 60.8406 49.8213C61.1599 50.0944 61.4969 50.3556 61.8458 50.7594C62.2005 51.1453 62.4666 51.7984 62.508 52.2972C62.5671 52.7959 62.5553 53.2294 62.5789 53.5856C62.5908 53.7578 62.6144 53.9181 62.6381 53.9656C62.644 54.0012 62.6558 53.9775 62.6262 53.9478C62.6144 53.9359 62.5848 53.9003 62.573 53.9003L62.644 53.9359C62.7445 53.9894 62.8568 54.019 62.981 54.0428C63.046 54.0547 63.1111 54.0606 63.1938 54.0665C63.2825 54.0725 63.4422 54.0784 63.5959 54.1081C63.7614 54.1378 63.9329 54.1972 64.0157 54.2269C64.1044 54.2565 64.1694 54.2744 64.2463 54.2981C64.4059 54.3397 64.5774 54.3694 64.7843 54.399C65.1864 54.4644 65.5648 54.5237 65.8723 54.5237C66.026 54.5237 66.1679 54.5119 66.2921 54.4822C66.4044 54.4584 66.5759 54.3931 66.6172 54.3634C66.6232 54.3575 66.6232 54.3575 66.7591 54.2447C66.8833 54.1437 67.0252 54.0547 67.1435 53.9894C67.38 53.8647 67.6165 53.7578 67.8825 53.6806C68.4147 53.5144 68.9764 53.5322 69.2838 53.5084C69.4435 53.4966 69.5676 53.4728 69.68 53.4312C69.6031 53.4669 69.7628 53.3778 69.8692 53.265C70.1175 53.0334 70.3954 52.7247 70.6674 52.4278C71.2232 51.8222 71.773 51.2225 72.2342 50.6228C72.4589 50.326 72.654 50.0231 72.6895 49.8569C72.7427 49.6431 72.7486 49.3285 72.6777 49.0435C72.3052 47.6185 71.5898 46.1341 70.8093 44.7626C70.4131 44.0797 69.9756 43.3791 69.5203 42.7676C69.0296 42.1026 68.5388 41.4851 68.0126 40.8498C66.9543 39.591 65.9136 38.2729 64.9262 36.9489C64.4177 36.2839 64.0039 35.6486 63.454 34.9717C62.9278 34.2889 62.4429 33.517 62.1355 32.6798C61.8162 31.8426 61.6566 30.9936 61.5265 30.1683L61.3491 28.9333L61.2663 28.3217C61.2604 28.2683 61.2486 28.203 61.2545 28.2267C61.2545 28.2208 61.2486 28.197 61.2368 28.1733C61.2072 28.1199 61.1599 28.0427 61.1067 27.9714C60.8761 27.6745 60.5923 27.3302 60.344 27.0452C60.0838 26.7542 59.7941 26.4871 59.4866 26.208C58.8599 25.6617 58.2686 25.068 57.6833 24.498C56.4594 23.3639 55.2059 22.2893 53.9642 21.1968Z" fill="#AF88BD"/>
<path d="M68.4268 47.2563C68.4387 47.4225 68.4741 47.9807 68.8466 48.1528C69.1245 48.2835 69.5443 48.1707 69.6744 47.9213C69.7572 47.761 69.7099 47.571 69.6567 47.381C69.6035 47.191 69.5562 47.1672 69.4143 46.8704C69.2132 46.4369 69.3315 46.4369 69.1955 46.3063C69.095 46.2113 69.0063 46.3063 68.6988 46.051C68.2376 45.671 68.214 45.4572 67.9834 45.2672C67.9302 45.2197 68.3263 46.0391 68.4682 46.5319C68.551 46.7813 68.4032 46.8585 68.4268 47.2563Z" fill="#AF88BD"/>
<path d="M58.7123 33.885C58.9311 34.2888 58.736 35.0725 58.1565 35.3397C57.7249 35.5416 57.2046 35.405 56.9149 35.1081C56.6074 34.8053 56.6074 34.3897 56.6074 33.7366C56.6074 32.9588 56.8025 32.1572 56.8025 32.1394C56.8025 32.1394 57.4352 32.9647 58.3398 33.5703C58.5527 33.7188 58.6414 33.7544 58.7123 33.885Z" fill="#AF88BD"/>
<path d="M55.7915 30.5422C56.2941 30.9282 56.7139 31.32 57.1455 31.6882C57.5712 32.0563 57.9851 32.4125 58.4167 32.7569C58.8424 33.1013 59.274 33.4397 59.7234 33.7782C60.1668 34.1285 60.6339 34.461 61.1129 34.8766C60.4802 34.936 59.8653 34.8113 59.2799 34.6035C58.7005 34.3897 58.1506 34.075 57.6717 33.6832C57.1869 33.2913 56.7671 32.8222 56.4419 32.2938C56.1167 31.7535 55.8684 31.1775 55.7915 30.5422Z" fill="#AF88BD"/>
<path d="M49.1694 16.2271L49.2699 16.1203C50.2928 15.1109 51.3926 14.2381 52.5514 13.4425C53.1309 13.0387 53.7103 12.6587 54.343 12.3025C54.6741 12.1243 54.9579 11.9581 55.4368 11.7919C55.4959 11.774 55.5787 11.7503 55.6674 11.7384C55.7738 11.7265 55.8802 11.7028 56.1227 11.7444C56.3473 11.774 56.7258 12.0115 56.8499 12.3559C56.9741 12.6825 56.9031 12.9497 56.8795 13.0506C56.8026 13.3059 56.7317 13.4009 56.6785 13.5018C56.6193 13.6028 56.572 13.68 56.5188 13.7571C56.1049 14.3331 55.7975 14.8615 55.4782 15.4315C55.1589 16.0074 54.9224 16.6606 54.609 17.2662C53.9705 18.4834 53.4324 19.7362 52.6697 20.989C52.7111 19.564 52.918 18.1331 53.3142 16.7556C53.4088 16.4112 53.5034 16.0609 53.6098 15.7224C53.7221 15.3781 53.7931 15.0337 53.9646 14.6953C54.1242 14.3568 54.2838 14.0125 54.4612 13.6859C54.6445 13.3653 54.8574 13.0506 55.0407 12.7715L55.1589 12.5875C55.1944 12.54 55.2062 12.4865 55.1826 12.5697C55.1826 12.5875 55.1175 12.7656 55.218 13.009C55.3067 13.2703 55.6083 13.4484 55.7502 13.4662C55.9039 13.4959 55.9276 13.4781 55.9453 13.4781C55.9512 13.4781 55.9453 13.4781 55.9275 13.484C55.7443 13.5256 55.4013 13.68 55.1116 13.8106L53.2491 14.6715C51.9779 15.2237 50.689 15.7818 49.3172 16.1856L49.1694 16.2271Z" fill="#AF88BD"/>
<path d="M41.329 44.6497C40.8974 46.2409 40.5604 47.7787 40.4599 49.3165C40.3416 50.8484 40.4362 52.3565 40.7082 53.8587C40.9743 55.3549 41.4118 56.8808 41.7961 58.4305C42.1804 59.9624 42.6535 61.4764 43.1028 63.0677C42.0031 61.8327 41.1576 60.4017 40.4776 58.8936C39.839 57.3914 39.2596 55.8477 38.964 54.1674C38.6624 52.499 38.6802 50.7356 39.0881 49.0909C39.4902 47.4403 40.2411 45.8965 41.329 44.6497Z" fill="#AF88BD"/>
<path d="M73.2867 18.4714L73.6001 19.9499C73.7893 20.8524 74.5757 21.4995 75.4922 21.5114L76.9999 21.5352L75.5276 21.8498C74.6289 22.0398 73.9844 22.8295 73.9726 23.7498L73.949 25.2639L73.6356 23.7855C73.4464 22.883 72.66 22.2358 71.7436 22.2239L70.2358 22.2002L71.7081 21.8855C72.6068 21.6955 73.2513 20.9058 73.2631 19.9855L73.2867 18.4714Z" fill="#AF88BD"/>
<path d="M58.9723 0.201904L59.2857 1.68033C59.4749 2.58282 60.2612 3.23001 61.1777 3.24188L62.6854 3.26563L61.2132 3.58032C60.3145 3.77032 59.67 4.56 59.6582 5.4803L59.6345 6.99436L59.3211 5.51593C59.1319 4.61344 58.3456 3.96625 57.4291 3.95438L55.9214 3.93063L57.3936 3.61594C58.2923 3.42594 58.9368 2.63626 58.9486 1.71596L58.9723 0.201904Z" fill="#AF88BD"/>
<path d="M39.3368 3.7644L39.5733 4.88658C39.7152 5.56939 40.3124 6.0622 41.0041 6.07408L42.1453 6.09189L41.0278 6.32939C40.3478 6.47189 39.8571 7.07157 39.8453 7.76625L39.8275 8.91218L39.591 7.79C39.4491 7.10719 38.852 6.61438 38.1602 6.60251L37.019 6.5847L38.1365 6.3472C38.8165 6.2047 39.3072 5.60502 39.3191 4.91033L39.3368 3.7644Z" fill="#AF88BD"/>
<path d="M25.6785 0L25.9859 1.45468C26.1751 2.33936 26.9438 2.9806 27.8484 2.99248L29.3325 3.01623L27.878 3.32498C26.997 3.51498 26.3584 4.28684 26.3466 5.19528L26.3229 6.68558L26.0155 5.22496C25.8263 4.34028 25.0576 3.69904 24.153 3.68716L22.6689 3.66341L24.1175 3.35466C24.9985 3.16467 25.6371 2.3928 25.6489 1.48436L25.6785 0Z" fill="#AF88BD"/>
<path d="M11.7483 9.93335L12.1267 11.7324C12.3573 12.8249 13.3092 13.6146 14.4267 13.6324L16.2596 13.6621L14.4681 14.0421C13.3802 14.2736 12.5938 15.2296 12.576 16.3517L12.5465 18.1924L12.1681 16.3933C11.9375 15.3008 10.9856 14.5111 9.86807 14.4933L8.03516 14.4636L9.82668 14.0836C10.9146 13.8521 11.701 12.8961 11.7187 11.774L11.7483 9.93335Z" fill="#AF88BD"/>
</g>
<g clip-path="url(#clip1_301_147)">
<path d="M120.703 48.8072C120.703 50.1012 120.406 51.2459 119.821 52.2412C119.235 53.2366 118.471 54.0743 117.529 54.7545C116.587 55.4429 115.535 55.9572 114.355 56.3139C113.176 56.6705 111.996 56.8447 110.825 56.8447C110.222 56.8447 109.637 56.8115 109.06 56.7369C108.482 56.6622 107.905 56.5793 107.328 56.4798C107.048 56.43 106.675 56.3139 106.2 56.1314C105.724 55.9489 105.249 55.725 104.774 55.4678C104.298 55.2107 103.883 54.9204 103.535 54.6052C103.178 54.29 103 53.9831 103 53.6928C103 53.6181 103.068 53.5435 103.204 53.4522C103.339 53.3693 103.492 53.2863 103.653 53.2117C103.815 53.137 103.976 53.079 104.146 53.0292C104.307 52.9794 104.426 52.9463 104.502 52.9214C104.68 52.8218 104.876 52.6642 105.088 52.4403C105.3 52.2163 105.512 52.0007 105.724 51.7767C105.936 51.5528 106.14 51.362 106.327 51.1878C106.514 51.0136 106.675 50.9307 106.794 50.9307C106.972 50.9307 107.091 51.0302 107.167 51.221C107.668 52.4071 108.398 53.3444 109.348 54.0411C110.299 54.7379 111.453 55.0863 112.802 55.0863C113.43 55.0863 114.024 54.995 114.584 54.8125C115.145 54.6301 115.637 54.3563 116.053 54.008C116.469 53.6513 116.8 53.22 117.046 52.7057C117.292 52.1914 117.419 51.6025 117.419 50.939C117.419 49.7611 117.071 48.8155 116.384 48.0939C115.696 47.3723 114.839 46.7585 113.812 46.2608C112.785 45.7631 111.665 45.3152 110.451 44.9171C109.238 44.5272 108.118 44.0627 107.091 43.5236C106.064 42.9844 105.207 42.3208 104.519 41.5246C103.832 40.72 103.492 39.6749 103.492 38.3726C103.492 37.9579 103.552 37.5514 103.679 37.1616C103.806 36.7717 103.951 36.3902 104.129 36.0252C104.782 34.781 105.682 33.9101 106.836 33.4207C107.99 32.9313 109.238 32.6825 110.596 32.6825C111.147 32.6825 111.699 32.7488 112.251 32.8816C112.802 33.0143 113.354 33.0723 113.906 33.0474L116.163 32.9728C116.511 32.9479 116.876 32.865 117.249 32.7157C117.623 32.5664 117.979 32.5 118.336 32.5C118.735 32.5 118.938 32.6991 118.938 33.0889C118.938 33.3129 118.819 33.6198 118.582 34.0096C118.344 34.3995 118.047 34.781 117.699 35.146C117.351 35.5109 116.969 35.8344 116.57 36.1165C116.172 36.3985 115.807 36.5395 115.484 36.5395C115.034 36.5395 114.534 36.4317 113.982 36.2243C113.43 36.0169 112.87 35.7847 112.293 35.5275C111.716 35.2704 111.147 35.0382 110.587 34.8308C110.01 34.6234 109.475 34.5239 108.975 34.5239C108.398 34.5239 107.863 34.6898 107.362 35.0216C106.861 35.3451 106.607 35.8178 106.607 36.4317C106.607 37.1699 106.929 37.7422 107.583 38.1569C108.338 38.6214 109.178 39.0528 110.12 39.4592C111.062 39.8656 112.021 40.2638 112.997 40.6702C113.973 41.0766 114.924 41.5163 115.858 41.9891C116.783 42.4701 117.606 43.0259 118.319 43.6646C119.032 44.3033 119.609 45.0332 120.05 45.8709C120.483 46.7004 120.703 47.6792 120.703 48.8072Z" fill="#AF88BD"/>
<path d="M127.128 51.1214C127.128 51.7849 127.145 52.4485 127.188 53.1204C127.23 53.7922 127.306 54.4641 127.434 55.1194C127.459 55.2687 127.519 55.4595 127.62 55.6917C127.722 55.924 127.773 56.0899 127.773 56.1894C127.773 56.4631 127.637 56.5958 127.357 56.5958H123.368C123.088 56.5958 122.953 56.4631 122.953 56.1894C122.953 56.0899 123.004 55.924 123.105 55.6917C123.207 55.4595 123.267 55.2687 123.292 55.1194C123.419 54.4558 123.496 53.7922 123.538 53.1204C123.572 52.4485 123.598 51.7766 123.598 51.1214V48.1851C123.598 47.5215 123.581 46.8579 123.538 46.1861C123.504 45.5142 123.419 44.8423 123.292 44.1871C123.267 44.0378 123.207 43.847 123.105 43.6147C123.004 43.3825 122.953 43.2166 122.953 43.1171C122.953 42.8516 123.088 42.7106 123.368 42.7106H127.391C127.663 42.7106 127.807 42.8433 127.807 43.1171C127.807 43.2166 127.756 43.3825 127.654 43.6147C127.552 43.847 127.493 44.0378 127.468 44.1871C127.391 44.5271 127.332 44.8092 127.298 45.0331C127.264 45.2571 127.23 45.4727 127.205 45.6967C127.179 45.9206 127.162 46.1446 127.145 46.3768C127.128 46.6091 127.128 46.8828 127.128 47.2063V49.8855V51.1214ZM127.595 38.3559C127.383 38.1237 127.137 37.8749 126.865 37.6011C126.585 37.3357 126.33 37.0869 126.093 36.8629C125.855 36.639 125.711 36.5311 125.66 36.5311C125.609 36.5311 125.499 36.6058 125.32 36.7551C125.142 36.9044 124.947 37.0786 124.718 37.2859C124.489 37.4933 124.251 37.709 124.005 37.9246C123.75 38.1486 123.53 38.3311 123.326 38.4721V39.0195C123.623 39.2186 123.963 39.5006 124.319 39.8656C124.684 40.2305 124.956 40.554 125.125 40.8194C125.176 40.8443 125.21 40.8692 125.236 40.8941C125.261 40.919 125.32 40.9273 125.422 40.9273C125.55 40.9273 125.617 40.919 125.626 40.8941C125.634 40.8692 125.668 40.8443 125.719 40.8194C125.923 40.6453 126.161 40.413 126.449 40.1227C126.738 39.8324 127.094 39.5587 127.519 39.3181C127.612 39.2849 127.697 39.202 127.782 39.0942C127.866 38.9863 127.917 38.8785 127.917 38.779C127.917 38.7292 127.807 38.5882 127.595 38.3559Z" fill="#AF88BD"/>
<path d="M131.932 34.9221C132.381 34.582 132.797 34.2751 133.171 34.0014C133.493 33.7608 133.79 33.5369 134.053 33.3378C134.316 33.1387 134.469 33.0475 134.52 33.0475C134.647 33.0475 134.749 33.1055 134.817 33.2134C134.894 33.3212 134.928 33.429 134.928 33.5286C134.928 33.5783 134.911 33.6613 134.868 33.7857C134.834 33.9101 134.783 34.0511 134.741 34.2253C134.69 34.3995 134.639 34.5737 134.588 34.7562C134.537 34.9387 134.503 35.1046 134.478 35.2539C134.427 35.5027 134.418 35.7681 134.461 36.0584C134.503 36.3487 134.503 36.6474 134.452 36.946L134.418 51.2708C134.393 51.7602 134.393 52.2993 134.418 52.8882C134.444 53.4771 134.495 54.0495 134.571 54.6135C134.622 54.8126 134.758 55.0448 134.987 55.3269C135.216 55.6089 135.326 55.7831 135.326 55.8577C135.326 56.1231 135.267 56.3056 135.157 56.3886C135.046 56.4715 134.936 56.5379 134.834 56.5876C134.707 56.6125 134.427 56.6208 133.985 56.6208C133.544 56.6208 133.077 56.6208 132.577 56.6208C132 56.6208 131.372 56.6125 130.701 56.5876C130.497 56.5627 130.37 56.5047 130.311 56.4052C130.251 56.3056 130.2 56.231 130.183 56.1812C130.107 56.0319 130.099 55.9158 130.149 55.8328C130.2 55.7499 130.268 55.6586 130.353 55.5591C130.438 55.4596 130.531 55.3351 130.616 55.1941C130.701 55.0448 130.76 54.8541 130.786 54.6052V50.5989V38.5219C130.786 38.3975 130.744 38.2399 130.659 38.0409C130.574 37.8418 130.48 37.6344 130.396 37.3939C130.311 37.1616 130.234 36.9377 130.166 36.7137C130.107 36.4898 130.082 36.3073 130.107 36.1663C130.183 36.017 130.328 35.876 130.54 35.7266C130.752 35.5773 130.956 35.4446 131.159 35.3202C131.397 35.2041 131.66 35.0714 131.932 34.9221Z" fill="#AF88BD"/>
<path d="M152.223 43.7392C152.223 44.0544 152.062 44.5936 151.731 45.3567C151.409 46.1198 150.984 46.9824 150.475 47.9446C149.957 48.9151 149.389 49.9187 148.769 50.9556C148.141 51.9924 147.539 52.9463 146.962 53.8006C146.384 54.655 145.875 55.3683 145.417 55.9323C144.967 56.4964 144.636 56.7784 144.441 56.7784C144.416 56.7784 144.382 56.7784 144.331 56.7784C144.28 56.7784 144.254 56.7701 144.254 56.7452C144.127 56.6955 144.025 56.6374 143.957 56.5627C143.881 56.4881 143.821 56.4051 143.771 56.3056C143.567 55.8411 143.423 55.3434 143.338 54.8209C143.253 54.2983 143.109 53.784 142.905 53.2947C142.557 52.4652 142.184 51.6108 141.793 50.7399C141.403 49.869 140.995 48.998 140.571 48.1354C140.147 47.2645 139.697 46.4184 139.239 45.5807C138.772 44.7512 138.28 43.9632 137.753 43.2333L137.94 43.0093C138.441 42.9098 138.959 42.8683 139.502 42.8849C140.036 42.8932 140.563 42.9015 141.063 42.9015C141.165 42.9015 141.301 42.9015 141.479 42.9015C141.657 42.9015 141.827 42.9098 142.005 42.9181C142.184 42.9347 142.336 42.9513 142.472 42.9927C142.608 43.0259 142.701 43.084 142.752 43.1586C142.998 43.648 143.219 44.1706 143.389 44.718C143.567 45.2655 143.754 45.8046 143.949 46.3189C144.322 47.2479 144.721 48.2018 145.154 49.1639C145.578 50.1344 146.003 51.08 146.435 52.009H146.622C146.945 51.7436 147.327 51.2957 147.751 50.6901C148.175 50.0763 148.566 49.4211 148.914 48.7077C149.262 47.9944 149.567 47.2976 149.813 46.6175C150.059 45.929 150.187 45.365 150.187 44.9254C150.187 44.6102 150.144 44.3365 150.051 44.1208C149.966 43.8968 149.796 43.6812 149.542 43.4572V43.1254C149.694 43.0259 149.83 42.9761 149.957 42.9761C150.11 42.9761 150.314 42.9761 150.577 42.9761C150.84 42.9761 151.086 42.9927 151.332 43.0342C151.57 43.0674 151.774 43.142 151.952 43.2582C152.139 43.3494 152.223 43.5153 152.223 43.7392Z" fill="#AF88BD"/>
<path d="M167.33 53.8006C167.33 53.9997 167.186 54.2485 166.897 54.5554C166.609 54.8623 166.388 55.078 166.244 55.2024C165.463 55.7664 164.708 56.1646 163.969 56.3968C163.231 56.6291 162.382 56.7452 161.432 56.7452C160.405 56.7452 159.437 56.5959 158.538 56.289C157.638 55.9821 156.849 55.5425 156.17 54.9702C155.491 54.3978 154.965 53.6928 154.574 52.855C154.184 52.0256 153.989 51.08 153.989 50.0266C153.989 49.0478 154.175 48.1105 154.549 47.2147C154.922 46.3189 155.44 45.5392 156.11 44.8839C156.772 44.2203 157.553 43.6978 158.461 43.3079C159.361 42.9181 160.328 42.719 161.355 42.719C162.128 42.719 162.874 42.8351 163.587 43.0674C164.3 43.2996 164.937 43.6397 165.488 44.0793C166.04 44.5189 166.481 45.0581 166.821 45.6968C167.16 46.3355 167.33 47.0571 167.33 47.8617C167.33 48.0856 167.228 48.2515 167.033 48.3759C166.829 48.5003 166.592 48.5916 166.303 48.6497C166.015 48.7077 165.726 48.7409 165.437 48.7409C165.149 48.7409 164.928 48.7409 164.775 48.7409C164.224 48.6911 163.672 48.6414 163.121 48.5916C162.569 48.5418 162.017 48.5169 161.466 48.5169C160.617 48.5169 159.862 48.7326 159.208 49.1556C158.555 49.5869 158.232 50.2505 158.232 51.1546C158.232 51.7435 158.359 52.2661 158.631 52.714C158.894 53.1702 159.234 53.5435 159.666 53.8338C160.091 54.1241 160.566 54.3481 161.092 54.4974C161.618 54.6467 162.153 54.7213 162.705 54.7213C162.976 54.7213 163.358 54.6881 163.833 54.6301C164.309 54.572 164.682 54.4891 164.962 54.3895C165.064 54.3646 165.208 54.29 165.412 54.1656C165.616 54.0412 165.819 53.925 166.032 53.8172C166.244 53.7094 166.439 53.6015 166.617 53.502C166.795 53.4025 166.906 53.3527 166.957 53.3527C167.058 53.3527 167.143 53.4025 167.22 53.502C167.296 53.6098 167.33 53.7011 167.33 53.8006ZM163.163 46.5677C163.163 45.929 162.968 45.4065 162.577 44.9917C162.187 44.577 161.669 44.3696 161.016 44.3696C160.541 44.3696 160.108 44.4775 159.717 44.7014C159.327 44.9254 159.004 45.2074 158.741 45.5641C158.478 45.9207 158.275 46.3189 158.122 46.7585C157.969 47.1981 157.893 47.6294 157.893 48.0441C157.893 48.1188 157.901 48.1934 157.927 48.2681C157.952 48.3428 157.978 48.4257 158.003 48.5252H158.266C158.996 47.9363 159.726 47.6128 160.464 47.5548C161.203 47.4967 162.009 47.4635 162.891 47.4635C163.019 47.3391 163.095 47.2064 163.121 47.0571C163.146 46.8995 163.163 46.7419 163.163 46.5677Z" fill="#AF88BD"/>
<path d="M180.824 44.7677C180.824 45.3317 180.671 45.8211 180.357 46.2358C180.043 46.6506 179.653 46.9989 179.177 47.2644C179.05 47.339 178.863 47.4386 178.617 47.5547C178.371 47.6791 178.167 47.7372 178.015 47.7372C177.836 47.7372 177.718 47.6874 177.641 47.5879V47.3307C177.769 47.2063 177.955 47.0155 178.201 46.7584C178.448 46.5013 178.575 46.2856 178.575 46.1197C178.575 45.8294 178.439 45.6137 178.159 45.4727C177.887 45.34 177.624 45.2737 177.37 45.2737C176.716 45.2737 176.139 45.481 175.638 45.8958C175.138 46.3105 174.773 46.7999 174.552 47.3639C174.399 47.7538 174.314 48.21 174.289 48.7242C174.264 49.2385 174.255 49.703 174.255 50.1177C174.255 50.6818 174.255 51.2707 174.255 51.8845C174.255 52.4983 174.306 53.0872 174.408 53.6512C174.51 54.1406 174.671 54.6051 174.9 55.0447C175.129 55.4844 175.384 55.9157 175.689 56.3304C175.74 56.3802 175.825 56.4797 175.952 56.6456C176.08 56.8032 176.139 56.911 176.139 56.9608C176.139 57.1101 176.063 57.2096 175.91 57.276C175.757 57.3341 175.621 57.3672 175.494 57.3672C174.917 57.3672 174.289 57.3092 173.593 57.2013C172.906 57.0935 172.286 56.9608 171.734 56.8115C171.285 56.6871 170.962 56.3553 170.775 55.8161C170.589 55.277 170.478 54.6798 170.436 54.0162C170.402 53.3526 170.402 52.6974 170.436 52.0504C170.47 51.4034 170.495 50.9057 170.495 50.5656V47.2229C170.495 46.9989 170.487 46.7833 170.478 46.5593C170.461 46.3354 170.461 46.1197 170.461 45.8958C170.436 45.481 170.351 45.141 170.198 44.8838C170.046 44.6267 169.884 44.4193 169.706 44.2617C169.528 44.1041 169.375 43.9714 169.239 43.8719C169.104 43.7723 169.036 43.6479 169.036 43.5069C169.036 43.4074 169.07 43.3161 169.129 43.2332C169.188 43.1502 169.248 43.0839 169.299 43.0341C169.876 43.0341 170.461 43.0258 171.047 43.0175C171.633 43.0092 172.218 43.0009 172.795 43.0009C173.169 43.0009 173.466 43.0341 173.678 43.1088C173.89 43.1834 174.06 43.2913 174.187 43.4406C174.314 43.5899 174.416 43.7806 174.484 44.0129C174.561 44.2451 174.671 44.5189 174.824 44.8423C175.002 44.7926 175.197 44.6599 175.426 44.4359C175.655 44.212 175.918 43.9797 176.215 43.7392C176.513 43.4986 176.877 43.2747 177.285 43.0756C177.701 42.8765 178.167 42.7853 178.694 42.7853C179.347 42.7853 179.865 42.9512 180.255 43.283C180.629 43.6064 180.824 44.1041 180.824 44.7677Z" fill="#AF88BD"/>
<path d="M203.645 56.9111C202.295 56.9111 201.073 56.712 199.979 56.3221C198.892 55.9323 197.925 55.4014 197.085 54.7462C196.244 54.0826 195.531 53.3195 194.946 52.4486C194.36 51.5776 193.885 50.6818 193.537 49.7528C193.41 49.4127 193.308 48.9399 193.215 48.3427C193.13 47.7455 193.062 47.0736 193.028 46.3437C192.994 45.6055 192.968 44.8341 192.968 44.0129C192.968 43.1917 192.977 42.3955 192.985 41.6241C192.994 40.8527 193.011 40.1393 193.019 39.4923C193.028 38.8454 193.053 38.3145 193.079 37.8915C193.079 37.7671 193.079 37.5763 193.079 37.3026C193.079 37.0371 193.07 36.7551 193.045 36.4731C193.019 36.1911 192.994 35.9174 192.968 35.6436C192.943 35.3782 192.909 35.1791 192.858 35.0547C192.807 34.9552 192.705 34.8142 192.536 34.6151C192.374 34.416 192.205 34.217 192.026 34.0096C191.848 33.8022 191.695 33.6115 191.56 33.4373C191.424 33.2631 191.356 33.1553 191.356 33.1055C191.356 32.9064 191.449 32.8152 191.636 32.8318C191.823 32.8401 191.992 32.8484 192.145 32.8484C192.62 32.8484 193.13 32.8649 193.664 32.9064C194.199 32.9396 194.725 33.0142 195.243 33.1304C195.752 33.2382 196.253 33.4041 196.728 33.6115C197.203 33.8188 197.619 34.1091 197.967 34.4741C198.145 34.6981 198.29 35.005 198.4 35.3948C198.51 35.7846 198.604 36.1994 198.663 36.6224C198.723 37.0537 198.773 37.4768 198.79 37.8915C198.816 38.3062 198.824 38.6629 198.824 38.9532L198.595 45.9704C198.57 46.4847 198.587 47.0239 198.655 47.5879C198.714 48.1519 198.782 48.6745 198.858 49.1639C198.96 49.8274 199.138 50.5325 199.401 51.279C199.665 52.0255 200.046 52.714 200.547 53.3361C201.048 53.9582 201.684 54.4724 202.448 54.8789C203.212 55.2853 204.146 55.4595 205.249 55.4097C205.724 55.3848 206.259 55.1775 206.844 54.7876C207.43 54.3978 207.982 53.925 208.499 53.3776C209.009 52.8301 209.458 52.2495 209.832 51.6523C210.205 51.0551 210.434 50.5325 210.511 50.0929C210.562 49.7279 210.629 49.3464 210.714 48.9565C210.799 48.5667 210.842 48.1768 210.842 47.7787C210.842 46.9492 210.731 46.128 210.519 45.3152C210.307 44.5106 210.078 43.706 209.84 42.9097C209.603 42.1134 209.373 41.3172 209.161 40.5209C208.949 39.7246 208.839 38.92 208.839 38.1154C208.839 37.2113 209.017 36.4399 209.365 35.8178C209.713 35.1957 210.188 34.5653 210.791 33.9267L210.68 33.7773C210.358 33.7276 210.027 33.6778 209.687 33.628C209.348 33.5783 209 33.5534 208.652 33.5534C208.304 33.5534 207.914 33.5949 207.489 33.6778C207.065 33.7608 206.666 33.9018 206.31 34.1008C205.953 34.2999 205.639 34.5405 205.393 34.8391C205.139 35.1294 205.02 35.5026 205.02 35.9422C205.02 36.2077 205.062 36.4316 205.147 36.6058C205.232 36.78 205.351 36.9708 205.503 37.1947C205.376 37.3689 205.206 37.5099 204.977 37.6178C204.748 37.7256 204.536 37.7837 204.341 37.7837C204.044 37.7837 203.755 37.709 203.492 37.5597C203.229 37.4104 203 37.2279 202.813 37.0123C202.626 36.7966 202.474 36.5395 202.363 36.2574C202.253 35.9754 202.194 35.6851 202.194 35.3948C202.194 34.8557 202.321 34.3994 202.584 34.0345C202.847 33.6695 203.178 33.3875 203.577 33.1884C203.976 32.9894 204.426 32.8484 204.926 32.7654C205.427 32.6825 205.902 32.6327 206.352 32.6327C207.15 32.6327 207.965 32.6908 208.796 32.7986C209.62 32.9064 210.434 33.0142 211.241 33.1138C211.487 33.1387 211.75 33.1138 212.013 33.0391C212.276 32.9645 212.531 32.9147 212.785 32.8898C213.014 32.8649 213.15 32.8981 213.201 32.9977C213.252 33.0972 213.277 33.2299 213.277 33.4041C213.277 33.4539 213.243 33.5534 213.184 33.7193C213.125 33.8769 213.057 34.0594 212.997 34.2667C212.938 34.4741 212.87 34.7063 212.811 34.9635C212.751 35.2206 212.717 35.4695 212.717 35.7183C212.717 36.9708 212.828 38.215 213.04 39.4675C213.252 40.72 213.362 41.9807 213.362 43.2498C213.362 44.1788 213.303 45.141 213.176 46.1363C213.048 47.1317 212.836 48.0773 212.539 48.9814C212.386 49.3961 212.208 49.8606 211.996 50.3583C211.784 50.8643 211.546 51.362 211.283 51.8679C211.02 52.3739 210.74 52.8467 210.434 53.3029C210.137 53.7591 209.832 54.1407 209.535 54.4559C208.711 55.3102 207.837 55.9323 206.921 56.3138C206.013 56.6871 204.918 56.8862 203.645 56.9111Z" fill="#AF88BD"/>
<path d="M232.313 56.8779C232.313 57.0521 232.254 57.1682 232.126 57.2263C231.999 57.2843 231.863 57.3175 231.711 57.3175C231.082 57.3175 230.404 57.2678 229.682 57.1682C228.952 57.0687 228.307 56.9277 227.73 56.7286C227.382 56.6291 227.102 56.4051 226.907 56.0484C226.703 55.6918 226.559 55.3102 226.457 54.8955C226.355 54.4808 226.304 54.0577 226.287 53.6264C226.279 53.1951 226.27 52.8384 226.27 52.5398V47.364L226.304 46.3023C226.304 45.6636 226.194 45.141 225.982 44.7263C225.77 44.3115 225.286 44.1042 224.539 44.1042C223.962 44.1042 223.385 44.1954 222.808 44.3779C222.231 44.5604 221.705 44.8009 221.229 45.0912C221.178 45.2903 221.161 45.4894 221.17 45.6968C221.178 45.9041 221.187 46.1115 221.187 46.3023C221.187 47.3557 221.178 48.4008 221.17 49.4459C221.161 50.4828 221.153 51.5362 221.153 52.5896C221.153 53.867 221.314 55.1029 221.645 56.2973C221.543 56.3719 221.441 56.4632 221.348 56.571C221.246 56.6788 221.136 56.7369 221.009 56.7369H218.004C217.75 56.7369 217.614 56.7203 217.572 56.6788C217.538 56.6457 217.427 56.5544 217.249 56.4051C217.3 56.1812 217.376 55.9738 217.495 55.7581C217.605 55.5508 217.665 55.3351 217.665 55.1194V45.8958C217.665 45.3318 217.453 44.9005 217.028 44.6102C216.604 44.3198 216.163 44.071 215.713 43.8719V43.507C215.815 43.4821 216.069 43.424 216.485 43.3411C216.901 43.2581 217.351 43.1669 217.835 43.0674C218.327 42.9678 218.768 42.8849 219.167 42.8102C219.566 42.7356 219.804 42.7024 219.88 42.7024C220.381 42.7024 220.678 42.8268 220.763 43.0839C220.847 43.3411 220.966 43.6563 221.119 44.0212H221.306C221.408 44.0212 221.526 43.9798 221.662 43.8968C221.798 43.8139 221.908 43.7475 221.985 43.6977C222.562 43.4074 223.207 43.1752 223.92 43.0176C224.633 42.86 225.32 42.777 225.965 42.777C226.143 42.777 226.44 42.7936 226.865 42.8351C227.289 42.8683 227.722 42.9263 228.163 43.001C228.604 43.0757 228.986 43.1752 229.326 43.3162C229.665 43.4489 229.835 43.6314 229.835 43.8471V49.0644C229.835 49.4293 229.835 49.8441 229.835 50.292C229.835 50.7482 229.852 51.2044 229.894 51.6689C229.928 52.1334 229.996 52.5896 230.081 53.0292C230.166 53.4688 230.285 53.8587 230.437 54.207C230.641 54.6964 230.93 55.1526 231.303 55.5674C231.677 55.9738 232.016 56.4134 232.313 56.8779Z" fill="#AF88BD"/>
<path d="M239.264 51.2541C239.264 51.9176 239.281 52.5812 239.324 53.2531C239.358 53.9249 239.442 54.5968 239.57 55.2521C239.595 55.4014 239.655 55.5922 239.756 55.8244C239.858 56.0567 239.909 56.2225 239.909 56.3221C239.909 56.5958 239.773 56.7285 239.493 56.7285H235.513C235.233 56.7285 235.097 56.5958 235.097 56.3221C235.097 56.2225 235.148 56.0567 235.25 55.8244C235.352 55.5922 235.411 55.4014 235.437 55.2521C235.564 54.5885 235.64 53.9249 235.683 53.2531C235.717 52.5812 235.742 51.9093 235.742 51.2541V48.3178C235.742 47.6542 235.725 46.9906 235.683 46.3188C235.649 45.6469 235.564 44.975 235.437 44.3198C235.411 44.1705 235.352 43.9797 235.25 43.7474C235.148 43.5152 235.097 43.3493 235.097 43.2498C235.097 42.9843 235.233 42.8433 235.513 42.8433H239.536C239.807 42.8433 239.952 42.976 239.952 43.2498C239.952 43.3493 239.901 43.5152 239.799 43.7474C239.697 43.9797 239.638 44.1705 239.612 44.3198C239.536 44.6598 239.485 44.9419 239.442 45.1658C239.408 45.3898 239.375 45.6054 239.349 45.8294C239.324 46.0533 239.307 46.2773 239.29 46.5095C239.281 46.7418 239.273 47.0155 239.273 47.339V50.0182V51.2541H239.264ZM239.739 38.4969C239.527 38.2647 239.281 38.0158 239.01 37.7421C238.73 37.4767 238.475 37.2279 238.237 37.0039C238 36.7799 237.855 36.6721 237.804 36.6721C237.754 36.6721 237.643 36.7468 237.465 36.8961C237.287 37.0454 237.092 37.2196 236.862 37.4269C236.633 37.6343 236.396 37.85 236.15 38.0656C235.903 38.2896 235.674 38.4721 235.471 38.6131V39.1605C235.768 39.3596 236.107 39.6416 236.464 40.0066C236.828 40.3715 237.092 40.695 237.27 40.9604C237.321 40.9853 237.355 41.0102 237.38 41.0351C237.406 41.06 237.465 41.0683 237.567 41.0683C237.694 41.0683 237.762 41.06 237.771 41.0351C237.779 41.0102 237.813 40.9853 237.864 40.9604C238.068 40.7863 238.305 40.554 238.594 40.2637C238.882 39.9734 239.239 39.6997 239.663 39.4591C239.739 39.4093 239.816 39.3347 239.909 39.2186C239.994 39.1107 240.036 39.0029 240.036 38.9034C240.053 38.8702 239.952 38.7292 239.739 38.4969Z" fill="#AF88BD"/>
<path d="M255.389 54.4558C255.389 54.5802 255.27 54.7378 255.032 54.9369C254.795 55.136 254.523 55.3351 254.226 55.5424C253.929 55.7498 253.615 55.9323 253.301 56.0899C252.987 56.2475 252.758 56.3553 252.605 56.4051C252.104 56.629 251.595 56.8032 251.086 56.9359C250.568 57.0686 249.991 57.135 249.338 57.135C248.362 57.135 247.445 56.9691 246.597 56.6373C245.748 56.3055 244.984 55.8327 244.322 55.2272C243.66 54.6134 243.117 53.8918 242.71 53.0623C242.294 52.2329 242.056 51.2956 241.98 50.2753C241.929 49.4459 242.065 48.6164 242.37 47.7952C242.684 46.9741 243.125 46.2442 243.703 45.6138C244.551 44.6599 245.476 43.9797 246.461 43.5733C247.454 43.1668 248.608 42.9678 249.94 42.9678C250.017 42.9678 250.246 42.9927 250.636 43.0424C251.027 43.0922 251.383 43.1254 251.706 43.1503C251.884 43.1751 252.172 43.2581 252.571 43.4074C252.97 43.5567 253.377 43.7392 253.776 43.9548C254.175 44.1788 254.532 44.411 254.829 44.6516C255.126 44.8921 255.279 45.1161 255.279 45.3152C255.279 45.3898 255.27 45.481 255.262 45.5889C255.245 45.6967 255.194 45.7797 255.092 45.8294C254.438 46.1695 253.98 46.4681 253.717 46.7086C253.454 46.9575 253.157 47.2229 252.834 47.5132C252.783 47.5381 252.749 47.563 252.724 47.5879C252.699 47.6128 252.639 47.6211 252.537 47.6211C252.435 47.6211 252.351 47.5879 252.274 47.5132C252.198 47.4386 252.147 47.3639 252.121 47.2893C252.045 46.5096 251.757 45.846 251.256 45.3069C250.755 44.7677 250.144 44.5023 249.414 44.5023C248.684 44.5023 248.099 44.6931 247.649 45.0746C247.199 45.4562 246.843 45.9041 246.597 46.4183C246.342 46.9326 246.181 47.4552 246.087 47.9943C246.002 48.5335 245.96 48.9648 245.96 49.28C245.96 51.0219 246.427 52.4071 247.352 53.4522C248.277 54.489 249.643 55.0116 251.451 55.0116C251.977 55.0116 252.435 54.9618 252.826 54.8623C253.216 54.7627 253.556 54.6466 253.844 54.5139C254.133 54.3812 254.362 54.2651 254.54 54.1655C254.718 54.066 254.854 54.0162 254.956 54.0162C255.083 54.0162 255.185 54.0743 255.279 54.1987C255.338 54.3148 255.389 54.4061 255.389 54.4558Z" fill="#AF88BD"/>
<path d="M271.548 49.6035C271.548 50.632 271.353 51.5859 270.962 52.4651C270.572 53.3443 270.037 54.1157 269.367 54.7793C268.688 55.4429 267.898 55.9571 266.982 56.3387C266.065 56.7202 265.098 56.911 264.071 56.911C263.044 56.911 262.093 56.7368 261.236 56.3968C260.371 56.0567 259.624 55.5839 259.004 54.9867C258.376 54.3895 257.892 53.6678 257.561 52.8218C257.222 51.9757 257.052 51.055 257.052 50.0514C257.052 49.0726 257.23 48.1436 257.578 47.2561C257.926 46.3768 258.427 45.6054 259.064 44.9419C259.7 44.2783 260.464 43.7557 261.338 43.3659C262.212 42.976 263.18 42.777 264.232 42.777C265.208 42.777 266.142 42.9512 267.033 43.2912C267.924 43.6313 268.696 44.1124 269.367 44.7262C270.029 45.34 270.563 46.0616 270.962 46.8911C271.344 47.7206 271.548 48.6247 271.548 49.6035ZM268.348 50.4744C268.348 50.1094 268.306 49.6781 268.221 49.1887C268.136 48.6993 267.983 48.2265 267.771 47.7869C267.559 47.3473 267.287 46.9741 266.965 46.6672C266.642 46.3603 266.235 46.2027 265.76 46.2027C265.556 46.2027 265.361 46.2607 265.157 46.3851C264.953 46.5096 264.758 46.5676 264.555 46.5676C264.453 46.5676 264.376 46.5261 264.308 46.4349C264.249 46.352 264.215 46.2607 264.215 46.1612C264.215 45.7962 264.402 45.4147 264.775 45.0331C265.149 44.6516 265.505 44.4027 265.828 44.2783C265.7 44.2285 265.565 44.1871 265.412 44.1539C265.259 44.1207 265.123 44.0958 264.996 44.0958C264.317 44.0958 263.714 44.2783 263.188 44.6516C262.662 45.0165 262.221 45.481 261.856 46.0368C261.491 46.5925 261.219 47.1814 261.033 47.8201C260.846 48.4588 260.752 49.0643 260.752 49.6283C260.752 50.2421 260.812 50.8974 260.939 51.5776C261.067 52.266 261.287 52.9047 261.593 53.4936C261.907 54.0826 262.323 54.5719 262.832 54.9452C263.341 55.3267 263.986 55.5175 264.767 55.5175C265.446 55.5175 266.014 55.3599 266.473 55.0364C266.939 54.7212 267.304 54.3148 267.584 53.8171C267.856 53.3277 268.051 52.7886 268.17 52.1914C268.297 51.6108 268.348 51.0384 268.348 50.4744Z" fill="#AF88BD"/>
<path d="M285.296 44.9004C285.296 45.4644 285.144 45.9538 284.83 46.3685C284.516 46.7833 284.125 47.1316 283.65 47.3971C283.523 47.4717 283.336 47.5713 283.09 47.6874C282.835 47.8118 282.64 47.8699 282.487 47.8699C282.309 47.8699 282.19 47.8201 282.114 47.7206V47.4634C282.241 47.339 282.428 47.1482 282.674 46.8911C282.92 46.634 283.047 46.4183 283.047 46.2524C283.047 45.9621 282.912 45.7464 282.632 45.6054C282.352 45.4727 282.088 45.4064 281.842 45.4064C281.189 45.4064 280.612 45.6137 280.111 46.0285C279.61 46.4432 279.245 46.9326 279.025 47.4966C278.872 47.8865 278.787 48.3427 278.762 48.8569C278.736 49.3712 278.728 49.8357 278.728 50.2504C278.728 50.8145 278.728 51.4034 278.728 52.0172C278.728 52.631 278.779 53.2199 278.88 53.7756C278.982 54.265 279.144 54.7295 279.373 55.1691C279.602 55.6088 279.865 56.0401 280.162 56.4548C280.213 56.5046 280.298 56.6041 280.425 56.77C280.552 56.9276 280.612 57.0354 280.612 57.0852C280.612 57.2345 280.535 57.334 280.383 57.4004C280.23 57.4585 280.094 57.4916 279.967 57.4916C279.39 57.4916 278.762 57.4336 278.066 57.3257C277.378 57.2179 276.759 57.0852 276.207 56.9442C275.757 56.8198 275.435 56.488 275.248 55.9488C275.061 55.4097 274.951 54.8125 274.909 54.1489C274.875 53.4853 274.875 52.8301 274.909 52.1831C274.943 51.5361 274.968 51.0384 274.968 50.6983V47.3556C274.968 47.1316 274.96 46.916 274.951 46.692C274.934 46.4681 274.934 46.2524 274.934 46.0285C274.909 45.6137 274.824 45.2736 274.671 45.0165C274.518 44.7594 274.357 44.552 274.179 44.3944C274.001 44.2368 273.848 44.1041 273.712 44.0129C273.576 43.9133 273.508 43.7889 273.508 43.6479C273.508 43.5484 273.542 43.4571 273.602 43.3742C273.661 43.2912 273.72 43.2249 273.771 43.1751C274.348 43.1751 274.934 43.1668 275.52 43.1585C276.105 43.1502 276.691 43.1419 277.268 43.1419C277.641 43.1419 277.938 43.1751 278.151 43.2498C278.363 43.3244 278.532 43.4322 278.66 43.5815C278.787 43.7308 278.889 43.9216 278.957 44.1539C279.033 44.3861 279.144 44.6598 279.296 44.9833C279.475 44.9336 279.67 44.8009 279.899 44.5769C280.128 44.3529 280.391 44.1207 280.688 43.8802C280.985 43.6396 281.342 43.4157 281.757 43.2166C282.173 43.0175 282.64 42.9263 283.166 42.9263C283.82 42.9263 284.337 43.0922 284.728 43.4239C285.101 43.7474 285.296 44.2451 285.296 44.9004Z" fill="#AF88BD"/>
<path d="M303 56.8779C303 57.0521 302.94 57.1682 302.813 57.2263C302.686 57.2843 302.55 57.3175 302.397 57.3175C301.769 57.3175 301.09 57.2678 300.369 57.1682C299.639 57.0687 298.994 56.9277 298.417 56.7286C298.069 56.6291 297.789 56.4051 297.593 56.0484C297.39 55.6918 297.246 55.3102 297.144 54.8955C297.042 54.4808 296.991 54.0577 296.974 53.6264C296.965 53.1951 296.957 52.8384 296.957 52.5398V47.364L296.991 46.3023C296.991 45.6636 296.881 45.141 296.668 44.7263C296.456 44.3115 295.973 44.1042 295.226 44.1042C294.649 44.1042 294.071 44.1954 293.494 44.3779C292.917 44.5604 292.391 44.8009 291.916 45.0912C291.865 45.2903 291.848 45.4894 291.856 45.6968C291.865 45.9041 291.873 46.1115 291.873 46.3023C291.873 47.3557 291.865 48.4008 291.856 49.4459C291.848 50.4828 291.839 51.5362 291.839 52.5896C291.839 53.867 292.001 55.1029 292.332 56.2973C292.23 56.3719 292.128 56.4632 292.035 56.571C291.933 56.6788 291.822 56.7369 291.695 56.7369H288.691C288.436 56.7369 288.3 56.7203 288.258 56.6788C288.224 56.6457 288.114 56.5544 287.936 56.4051C287.986 56.1812 288.063 55.9738 288.182 55.7581C288.292 55.5508 288.351 55.3351 288.351 55.1194V45.8958C288.351 45.3318 288.139 44.9005 287.715 44.6102C287.291 44.3198 286.849 44.071 286.399 43.8719V43.507C286.501 43.4821 286.756 43.424 287.172 43.3411C287.588 43.2581 288.037 43.1669 288.521 43.0674C289.013 42.9678 289.455 42.8849 289.854 42.8102C290.252 42.7356 290.49 42.7024 290.566 42.7024C291.067 42.7024 291.364 42.8268 291.449 43.0839C291.534 43.3411 291.653 43.6563 291.806 44.0212H291.992C292.094 44.0212 292.213 43.9798 292.349 43.8968C292.484 43.8139 292.595 43.7475 292.671 43.6977C293.248 43.4074 293.893 43.1752 294.606 43.0176C295.319 42.86 296.006 42.777 296.651 42.777C296.83 42.777 297.127 42.7936 297.551 42.8351C297.975 42.8683 298.408 42.9263 298.85 43.001C299.291 43.0757 299.673 43.1752 300.012 43.3162C300.352 43.4572 300.521 43.6314 300.521 43.8471V49.0644C300.521 49.4293 300.521 49.8441 300.521 50.292C300.521 50.7482 300.538 51.2044 300.581 51.6689C300.615 52.1334 300.683 52.5896 300.768 53.0292C300.852 53.4688 300.971 53.8587 301.124 54.207C301.328 54.6964 301.616 55.1526 301.99 55.5674C302.355 55.9738 302.694 56.4134 303 56.8779Z" fill="#AF88BD"/>
</g>
<defs>
<clipPath id="clip0_301_147">
<rect width="77" height="90" fill="white"/>
</clipPath>
<clipPath id="clip1_301_147">
<rect width="200" height="25" fill="white" transform="translate(103 32.5)"/>
</clipPath>
</defs>
</svg>
