<svg width="20" height="20" viewBox="0 0 20 20" fill="none" xmlns="http://www.w3.org/2000/svg">
<g id="Vector">
<path d="M1 19H19H1Z" fill="url(#paint0_linear_42_5585)"/>
<path d="M10 10C12.6315 10 14.7647 7.98528 14.7647 5.5C14.7647 3.01472 12.6315 1 10 1C7.36853 1 5.23529 3.01472 5.23529 5.5C5.23529 7.98528 7.36853 10 10 10Z" fill="url(#paint1_linear_42_5585)"/>
<path d="M19 19C19 13.3767 14.9705 11 10 11C5.02944 11 1 13.3767 1 19" fill="url(#paint2_linear_42_5585)"/>
<path d="M1 19H19C19 13.3767 14.9705 11 10 11C5.02944 11 1 13.3767 1 19ZM14.7647 5.5C14.7647 7.98528 12.6315 10 10 10C7.36853 10 5.23529 7.98528 5.23529 5.5C5.23529 3.01472 7.36853 1 10 1C12.6315 1 14.7647 3.01472 14.7647 5.5Z" stroke="url(#paint3_linear_42_5585)" stroke-width="2"/>
</g>
<defs>
<linearGradient id="paint0_linear_42_5585" x1="1" y1="19" x2="22.469" y2="12.5541" gradientUnits="userSpaceOnUse">
<stop stop-color="#7B458F"/>
<stop offset="0.197569" stop-color="#9158A4"/>
<stop offset="0.395139" stop-color="#A86CB9"/>
<stop offset="0.592708" stop-color="#C081CF"/>
<stop offset="0.790278" stop-color="#D896E5"/>
<stop offset="0.987847" stop-color="#F0ABFC"/>
</linearGradient>
<linearGradient id="paint1_linear_42_5585" x1="1" y1="19" x2="22.469" y2="12.5541" gradientUnits="userSpaceOnUse">
<stop stop-color="#7B458F"/>
<stop offset="0.197569" stop-color="#9158A4"/>
<stop offset="0.395139" stop-color="#A86CB9"/>
<stop offset="0.592708" stop-color="#C081CF"/>
<stop offset="0.790278" stop-color="#D896E5"/>
<stop offset="0.987847" stop-color="#F0ABFC"/>
</linearGradient>
<linearGradient id="paint2_linear_42_5585" x1="1" y1="19" x2="22.469" y2="12.5541" gradientUnits="userSpaceOnUse">
<stop stop-color="#7B458F"/>
<stop offset="0.197569" stop-color="#9158A4"/>
<stop offset="0.395139" stop-color="#A86CB9"/>
<stop offset="0.592708" stop-color="#C081CF"/>
<stop offset="0.790278" stop-color="#D896E5"/>
<stop offset="0.987847" stop-color="#F0ABFC"/>
</linearGradient>
<linearGradient id="paint3_linear_42_5585" x1="1" y1="19" x2="22.469" y2="12.5541" gradientUnits="userSpaceOnUse">
<stop stop-color="#7B458F"/>
<stop offset="0.197569" stop-color="#9158A4"/>
<stop offset="0.395139" stop-color="#A86CB9"/>
<stop offset="0.592708" stop-color="#C081CF"/>
<stop offset="0.790278" stop-color="#D896E5"/>
<stop offset="0.987847" stop-color="#F0ABFC"/>
</linearGradient>
</defs>
</svg>
