<svg width="37" height="37" viewBox="0 0 37 37" fill="none" xmlns="http://www.w3.org/2000/svg">
<path d="M25.7266 5.20312C22.6278 5.20312 19.9569 6.6759 18.5 9.11559C17.0431 6.6759 14.3722 5.20312 11.2734 5.20312C9.051 5.2058 6.92035 6.08985 5.34885 7.66135C3.77735 9.23285 2.8933 11.3635 2.89062 13.5859C2.89063 17.7181 5.49219 22.0367 10.6086 26.4189C12.971 28.4292 15.5217 30.2069 18.2254 31.7275C18.3098 31.773 18.4041 31.7969 18.5 31.7969C18.5959 31.7969 18.6902 31.773 18.7746 31.7275C21.4783 30.2069 24.029 28.4292 26.3914 26.4189C31.5078 22.0367 34.1094 17.7181 34.1094 13.5859C34.1067 11.3635 33.2227 9.23285 31.6511 7.66135C30.0796 6.08985 27.949 5.2058 25.7266 5.20312Z" fill="#AF88BD"/>
</svg>
