<svg width="51" height="51" viewBox="0 0 51 51" fill="none" xmlns="http://www.w3.org/2000/svg">
<path d="M43.0312 8.76563H7.96875C7.33472 8.76562 6.72665 9.01749 6.27832 9.46582C5.82999 9.91415 5.57812 10.5222 5.57812 11.1562V39.8438C5.57812 40.4778 5.82999 41.0858 6.27832 41.5342C6.72665 41.9825 7.33472 42.2344 7.96875 42.2344H43.0312C43.6653 42.2344 44.2733 41.9825 44.7217 41.5342C45.17 41.0858 45.4219 40.4778 45.4219 39.8438V11.1562C45.4219 10.5222 45.17 9.91415 44.7217 9.46582C44.2733 9.01749 43.6653 8.76563 43.0312 8.76563ZM43.8281 39.8438C43.8281 40.0551 43.7442 40.2578 43.5947 40.4072C43.4453 40.5567 43.2426 40.6406 43.0312 40.6406H7.96875C7.75741 40.6406 7.55472 40.5567 7.40527 40.4072C7.25583 40.2578 7.17188 40.0551 7.17188 39.8438V11.1562C7.17188 10.9449 7.25583 10.7422 7.40527 10.5928C7.55472 10.4433 7.75741 10.3594 7.96875 10.3594H43.0312C43.2426 10.3594 43.4453 10.4433 43.5947 10.5928C43.7442 10.7422 43.8281 10.9449 43.8281 11.1562V39.8438ZM34.2656 17.5312C34.2656 19.856 33.3421 22.0856 31.6982 23.7295C30.0544 25.3734 27.8248 26.2969 25.5 26.2969C23.1752 26.2969 20.9456 25.3734 19.3018 23.7295C17.6579 22.0856 16.7344 19.856 16.7344 17.5312C16.7344 17.3199 16.8183 17.1172 16.9678 16.9678C17.1172 16.8183 17.3199 16.7344 17.5312 16.7344C17.7426 16.7344 17.9453 16.8183 18.0947 16.9678C18.2442 17.1172 18.3281 17.3199 18.3281 17.5312C18.3281 19.4333 19.0837 21.2575 20.4287 22.6025C21.7737 23.9475 23.5979 24.7031 25.5 24.7031C27.4021 24.7031 29.2263 23.9475 30.5713 22.6025C31.9163 21.2575 32.6719 19.4333 32.6719 17.5312C32.6719 17.3199 32.7558 17.1172 32.9053 16.9678C33.0547 16.8183 33.2574 16.7344 33.4688 16.7344C33.6801 16.7344 33.8828 16.8183 34.0322 16.9678C34.1817 17.1172 34.2656 17.3199 34.2656 17.5312Z" fill="#AF88BD"/>
</svg>
