<svg width="12" height="22" viewBox="0 0 12 22" fill="none" xmlns="http://www.w3.org/2000/svg">
<path id="Vector" d="M2.37788 0.435355L11.6958 10.1873C11.8064 10.3034 11.885 10.4292 11.9314 10.5646C11.9779 10.7001 12.0007 10.8452 12 11C12 11.1548 11.9771 11.2999 11.9314 11.4354C11.8857 11.5708 11.8072 11.6966 11.6958 11.8127L2.37788 21.5937C2.11981 21.8646 1.79723 22 1.41014 22C1.02304 22 0.691243 21.8549 0.414745 21.5646C0.138249 21.2744 -8.60639e-07 20.9358 -8.26807e-07 20.5488C-7.92976e-07 20.1618 0.138249 19.8232 0.414746 19.533L8.54377 11L0.414747 2.46702C0.156683 2.19613 0.0276507 1.86216 0.0276507 1.46512C0.0276508 1.06807 0.165899 0.724818 0.442397 0.435355C0.718894 0.145118 1.04147 -9.58025e-07 1.41014 -9.25795e-07C1.7788 -8.93566e-07 2.10138 0.145118 2.37788 0.435355Z" fill="#AC70C2"/>
</svg>
