<svg width="23" height="20" viewBox="0 0 23 20" fill="none" xmlns="http://www.w3.org/2000/svg">
<path id="Vector" d="M19.9578 2.59132C19.4692 2.08683 18.8889 1.68663 18.2503 1.41358C17.6117 1.14054 16.9272 1 16.2359 1C15.5446 1 14.8601 1.14054 14.2215 1.41358C13.5829 1.68663 13.0027 2.08683 12.514 2.59132L11.4997 3.63785L10.4855 2.59132C9.49844 1.57275 8.15961 1.00052 6.76362 1.00052C5.36762 1.00052 4.0288 1.57275 3.04168 2.59132C2.05456 3.60991 1.5 4.99138 1.5 6.43186C1.5 7.87235 2.05456 9.25383 3.04168 10.2724L4.05588 11.3189L11.4997 19L18.9436 11.3189L19.9578 10.2724C20.4468 9.7681 20.8346 9.16941 21.0992 8.51045C21.3638 7.85148 21.5 7.14516 21.5 6.43186C21.5 5.71857 21.3638 5.01225 21.0992 4.35328C20.8346 3.69431 20.4468 3.09559 19.9578 2.59132Z" stroke="#AC70C2" stroke-width="2" stroke-linecap="round" stroke-linejoin="round"/>
</svg>
