<svg width="24" height="24" viewBox="0 0 24 24" fill="none" xmlns="http://www.w3.org/2000/svg">
<g id="Star=Empty">
<path id="Star 1" d="M11.0554 2.71739C11.3667 1.82183 12.6333 1.82183 12.9446 2.71739L14.5929 7.45943C14.7302 7.8545 15.0989 8.12237 15.5171 8.1309L20.5364 8.23318C21.4843 8.2525 21.8757 9.45704 21.1202 10.0298L17.1196 13.0629C16.7863 13.3156 16.6455 13.749 16.7666 14.1493L18.2203 18.9546C18.4949 19.8621 17.4703 20.6065 16.692 20.065L12.5712 17.1975C12.2279 16.9586 11.7721 16.9586 11.4288 17.1975L7.30799 20.065C6.52975 20.6065 5.5051 19.8621 5.77965 18.9546L7.23342 14.1493C7.35454 13.749 7.21371 13.3156 6.88042 13.0629L2.87983 10.0298C2.12429 9.45704 2.51567 8.2525 3.4636 8.23318L8.48291 8.1309C8.90108 8.12237 9.26978 7.8545 9.4071 7.45943L11.0554 2.71739Z" stroke="url(#paint0_linear_101_4826)"/>
</g>
<defs>
<linearGradient id="paint0_linear_101_4826" x1="0" y1="24" x2="28.6254" y2="15.4054" gradientUnits="userSpaceOnUse">
<stop stop-color="#7B458F"/>
<stop offset="0.197569" stop-color="#9158A4"/>
<stop offset="0.395139" stop-color="#A86CB9"/>
<stop offset="0.592708" stop-color="#C081CF"/>
<stop offset="0.790278" stop-color="#D896E5"/>
<stop offset="0.987847" stop-color="#F0ABFC"/>
</linearGradient>
</defs>
</svg>
