<svg width="18" height="16" viewBox="0 0 18 16" fill="none" xmlns="http://www.w3.org/2000/svg">
<path id="Vector" d="M13.1175 5.27834C13.6695 4.72101 14.2176 3.42059 11.9174 4.99968C9.76864 6.49262 7.60534 7.9641 5.42781 9.41384C5.09621 9.56523 4.73774 9.64738 4.37392 9.65535C4.01009 9.66331 3.64842 9.59696 3.31063 9.46034C1.93051 9.04229 0.319386 8.48496 0.319386 8.48496C0.319386 8.48496 -0.780704 7.78732 1.10245 7.04422C1.10245 7.04422 9.06412 3.74569 11.8254 2.5836C12.8834 2.11916 16.4727 0.632955 16.4727 0.632955C16.4727 0.632955 18.1299 -0.0182745 17.9918 1.56183C17.9459 2.21204 17.5779 4.48981 17.2098 6.95133C16.6567 10.4356 16.0586 14.2461 16.0586 14.2461C16.0586 14.2461 15.9666 15.3142 15.1846 15.5C14.3474 15.4857 13.5385 15.1917 12.8844 14.664C12.7004 14.5247 9.43318 12.4337 8.23604 11.4119C8.11426 11.3287 8.01534 11.2156 7.94845 11.0834C7.88156 10.9512 7.8489 10.804 7.85349 10.6555C7.85808 10.5071 7.89978 10.3623 7.9747 10.2345C8.04964 10.1067 8.15536 10.0002 8.28204 9.92478C9.92396 8.40823 11.5361 6.85907 13.1175 5.27834Z" fill="white"/>
</svg>
