<svg width="20" height="16" viewBox="0 0 20 16" fill="none" xmlns="http://www.w3.org/2000/svg">
<path id="Vector"
      d="M14.1175 5.27834C14.6695 4.72101 15.2176 3.42059 12.9174 4.99968C10.7686 6.49262 8.60534 7.9641 6.42781 9.41384C6.09621 9.56523 5.73774 9.64738 5.37392 9.65535C5.01009 9.66331 4.64842 9.59696 4.31063 9.46034C2.93051 9.04229 1.31939 8.48496 1.31939 8.48496C1.31939 8.48496 0.219296 7.78732 2.10245 7.04422C2.10245 7.04422 10.0641 3.74569 12.8254 2.5836C13.8834 2.11916 17.4727 0.632955 17.4727 0.632955C17.4727 0.632955 19.1299 -0.0182745 18.9918 1.56183C18.9459 2.21204 18.5779 4.48981 18.2098 6.95133C17.6567 10.4356 17.0586 14.2461 17.0586 14.2461C17.0586 14.2461 16.9666 15.3142 16.1846 15.5C15.3474 15.4857 14.5385 15.1917 13.8844 14.664C13.7004 14.5247 10.4332 12.4337 9.23604 11.4119C9.11426 11.3287 9.01534 11.2156 8.94845 11.0834C8.88156 10.9512 8.8489 10.804 8.85349 10.6555C8.85808 10.5071 8.89978 10.3623 8.9747 10.2345C9.04964 10.1067 9.15536 10.0002 9.28204 9.92478C10.924 8.40823 12.5361 6.85907 14.1175 5.27834Z" stroke="white"/>
</svg>
