<svg width="24" height="16" viewBox="0 0 24 16" fill="none" xmlns="http://www.w3.org/2000/svg">
<path id="Vector" d="M11.7539 15.4368H13.1283C13.1283 15.4368 13.5437 15.3842 13.7551 15.123C13.9506 14.8831 13.9434 14.4327 13.9434 14.4327C13.9434 14.4327 13.9161 12.3247 14.7728 12.014C15.6167 11.7084 16.7008 14.0515 17.8494 14.9538C18.7176 15.6356 19.3775 15.4861 19.3775 15.4861L22.4497 15.4368C22.4497 15.4368 24.057 15.3234 23.2949 13.8791C23.2333 13.7608 22.8507 12.811 21.0106 10.8589C19.0843 8.81471 19.343 9.14665 21.6633 5.61212C23.0764 3.45954 23.6415 2.14498 23.4646 1.583C23.2964 1.04733 22.257 1.18863 22.257 1.18863L18.8011 1.21165C18.8011 1.21165 18.5451 1.17221 18.3539 1.30203C18.1685 1.43019 18.0492 1.72596 18.0492 1.72596C18.0492 1.72596 17.5015 3.39217 16.7711 4.8086C15.2315 7.79758 14.6148 7.95533 14.3631 7.76965C13.7781 7.33749 13.9247 6.03114 13.9247 5.10438C13.9247 2.20742 14.3086 0.999678 13.1757 0.687462C12.799 0.583937 12.523 0.51493 11.5613 0.503424C10.3278 0.488639 9.28265 0.508358 8.6918 0.838637C8.2979 1.05883 7.99456 1.55014 8.18001 1.57808C8.40859 1.61259 8.92613 1.73747 9.20072 2.1647C9.55581 2.71518 9.54286 3.95414 9.54286 3.95414C9.54286 3.95414 9.74701 7.36378 9.06702 7.78772C8.59979 8.07856 7.96006 7.48537 6.58714 4.77246C5.88415 3.38395 5.35223 1.84757 5.35223 1.84757C5.35223 1.84757 5.25017 1.56164 5.06759 1.40883C4.84621 1.22315 4.53567 1.164 4.53567 1.164L1.24931 1.18699C1.24931 1.18699 0.756215 1.20343 0.575076 1.44827C0.414065 1.66681 0.562138 2.11705 0.562138 2.11705C0.562138 2.11705 3.13545 8.99711 6.04805 12.4659C8.72055 15.6455 11.7539 15.4368 11.7539 15.4368Z" fill="white"/>
</svg>
